<svg id="Layer_1" data-name="Layer 1" xmlns="http://www.w3.org/2000/svg" viewBox="0 0 199.2 199.2"><defs><style>.cls-1{fill:#fff;}</style></defs><title>back</title><path class="cls-1" d="M99.6,25.72A73.88,73.88,0,1,0,173.48,99.6,73.88,73.88,0,0,0,99.6,25.72Zm29.17,75.88H77.26l17.22,17.22a2,2,0,1,1-2.83,2.83L71,101,71,101a2,2,0,0,1-.2-.24l-.05-.1a2,2,0,0,1-.13-.24s0-.08,0-.12a2,2,0,0,1-.08-.25,2,2,0,0,1,0-.79,2,2,0,0,1,.08-.25s0-.08,0-.12a2,2,0,0,1,.14-.26l0-.08a2,2,0,0,1,.25-.3L91.65,77.55a2,2,0,0,1,2.83,2.83L77.26,97.6h51.5a2,2,0,1,1,0,4Z"/></svg>