<?xml version="1.0" encoding="utf-8"?>
<!-- Generator: Adobe Illustrator 17.0.0, SVG Export Plug-In . SVG Version: 6.00 Build 0)  -->
<!DOCTYPE svg PUBLIC "-//W3C//DTD SVG 1.1//EN" "http://www.w3.org/Graphics/SVG/1.1/DTD/svg11.dtd">
<svg version="1.1" id="Layer_1" xmlns="http://www.w3.org/2000/svg" xmlns:xlink="http://www.w3.org/1999/xlink" x="0px" y="0px"
	 width="612px" height="792px" viewBox="0 0 612 792" enable-background="new 0 0 612 792" xml:space="preserve">
<g>
	<g>
		<path fill="#FFFFFF" d="M186.24,516.24c0-80,0-160,0-240c80,0,160,0,240,0c0,80,0,160,0,240
			C346.24,516.24,266.24,516.24,186.24,516.24z M305.623,319.394c0.211,0.479,0.382,0.834,0.527,1.199
			c19.955,50.244,39.908,100.489,59.861,150.734c2.962,7.459,5.894,14.93,8.898,22.372c1.573,3.897,4.584,5.932,8.737,6.283
			c3.958,0.335,6.784-1.511,8.702-4.81c1.634-2.811,1.605-5.749,0.402-8.763c-23.523-58.924-47.028-117.855-70.538-176.784
			c-2.604-6.527-5.176-13.067-7.832-19.573c-1.68-4.116-5.787-6.384-10.169-5.689c-3.88,0.616-6.308,2.974-7.74,6.55
			c-26.052,65.094-52.114,130.184-78.179,195.272c-0.718,1.792-0.927,3.612-0.615,5.52c0.868,5.308,5.521,8.964,10.703,8.184
			c4.064-0.612,6.727-3.066,8.234-6.862c22.819-57.484,45.645-114.966,68.472-172.447
			C305.231,320.215,305.41,319.862,305.623,319.394z M258.965,490.27c0.073,4.502,3.296,8.729,7.413,9.569
			c4.741,0.967,9.124-1.32,10.97-5.673c1.481-3.492,3.04-6.952,4.509-10.449c0.318-0.757,0.739-0.972,1.528-0.971
			c14.8,0.022,29.599,0.026,44.399-0.006c0.93-0.002,1.312,0.333,1.636,1.152c1.363,3.454,2.764,6.894,4.215,10.312
			c2.296,5.413,9.304,7.635,13.989,4.474c3.962-2.673,5.473-7.759,3.606-12.324c-2.237-5.47-4.563-10.903-6.765-16.387
			c-1.764-4.394-5.119-6.765-9.861-6.766c-19.439-0.001-38.879-0.001-58.318,0c-4.23,0-8.182,2.628-9.75,6.551
			c-2.282,5.71-4.542,11.428-6.755,17.165C259.371,487.981,259.23,489.15,258.965,490.27z M305.307,424.919
			c-0.704,0-1.177-0.002-1.649,0c-4.318,0.019-8.643-0.112-12.952,0.098c-5.196,0.254-8.849,4.546-8.702,9.867
			c0.139,5.052,4.294,9.311,9.278,9.338c9.477,0.051,18.954,0.03,28.431,0.002c2.401-0.007,4.537-0.865,6.366-2.423
			c3.338-2.843,4.252-7.083,2.569-11.175c-4.691-11.407-9.319-22.841-14.004-34.25c-1.586-3.863-5.335-6.119-9.559-5.873
			c-4.222,0.245-7.41,2.777-8.56,6.85c-0.638,2.259-0.559,4.501,0.332,6.695c1.172,2.884,2.337,5.772,3.505,8.658
			C301.977,416.696,303.593,420.686,305.307,424.919z"/>
		<path d="M305.623,319.394c-0.213,0.468-0.392,0.82-0.537,1.186c-22.827,57.481-45.653,114.962-68.472,172.447
			c-1.507,3.796-4.171,6.251-8.234,6.862c-5.182,0.78-9.835-2.876-10.703-8.184c-0.312-1.908-0.102-3.728,0.615-5.52
			c26.066-65.088,52.127-130.178,78.179-195.272c1.431-3.576,3.859-5.934,7.74-6.55c4.382-0.695,8.488,1.574,10.169,5.689
			c2.656,6.506,5.228,13.046,7.832,19.573c23.51,58.929,47.015,117.86,70.538,176.784c1.203,3.014,1.232,5.952-0.402,8.763
			c-1.918,3.299-4.744,5.145-8.702,4.81c-4.153-0.351-7.164-2.386-8.737-6.283c-3.004-7.442-5.936-14.913-8.898-22.372
			c-19.953-50.245-39.906-100.49-59.861-150.734C306.005,320.228,305.834,319.873,305.623,319.394z"/>
		<path d="M258.965,490.27c0.265-1.12,0.406-2.289,0.816-3.353c2.212-5.737,4.473-11.455,6.755-17.165
			c1.568-3.923,5.52-6.551,9.75-6.551c19.439-0.001,38.879-0.001,58.318,0c4.742,0,8.096,2.372,9.861,6.766
			c2.202,5.484,4.528,10.917,6.765,16.387c1.867,4.564,0.356,9.651-3.606,12.324c-4.686,3.161-11.693,0.939-13.989-4.474
			c-1.45-3.418-2.852-6.858-4.215-10.312c-0.323-0.819-0.706-1.154-1.636-1.152c-14.8,0.032-29.599,0.028-44.399,0.006
			c-0.79-0.001-1.21,0.214-1.528,0.971c-1.469,3.497-3.028,6.957-4.509,10.449c-1.846,4.353-6.228,6.64-10.97,5.673
			C262.261,499,259.038,494.772,258.965,490.27z"/>
		<path d="M305.307,424.919c-1.714-4.232-3.33-8.223-4.945-12.214c-1.168-2.886-2.333-5.773-3.505-8.658
			c-0.892-2.194-0.97-4.436-0.332-6.695c1.15-4.073,4.337-6.604,8.56-6.85c4.223-0.245,7.972,2.01,9.559,5.873
			c4.685,11.41,9.313,22.843,14.004,34.25c1.683,4.092,0.769,8.332-2.569,11.175c-1.829,1.558-3.965,2.416-6.366,2.423
			c-9.477,0.028-18.954,0.049-28.431-0.002c-4.983-0.027-9.139-4.286-9.278-9.338c-0.146-5.321,3.506-9.613,8.702-9.867
			c4.309-0.211,8.634-0.079,12.952-0.098C304.13,424.917,304.603,424.919,305.307,424.919z"/>
	</g>
</g>
</svg>
