<?xml version="1.0" encoding="utf-8"?>
<!-- Generator: Adobe Illustrator 17.0.0, SVG Export Plug-In . SVG Version: 6.00 Build 0)  -->
<!DOCTYPE svg PUBLIC "-//W3C//DTD SVG 1.1//EN" "http://www.w3.org/Graphics/SVG/1.1/DTD/svg11.dtd">
<svg version="1.1" id="Layer_1" xmlns="http://www.w3.org/2000/svg" xmlns:xlink="http://www.w3.org/1999/xlink" x="0px" y="0px"
	 width="612px" height="792px" viewBox="0 0 612 792" enable-background="new 0 0 612 792" xml:space="preserve">
<g>
	<g>
		<path fill="#FFFFFF" d="M186.24,516.24c0-80,0-160,0-240c80,0,160,0,240,0c0,80,0,160,0,240
			C346.24,516.24,266.24,516.24,186.24,516.24z M337.413,503.287c7.26,0.054,14.455-0.618,21.583-1.965
			c7.477-1.413,14.744-3.555,21.791-6.432c2.661-1.087,4.635-2.893,5.36-5.734c1.004-3.934-0.045-7.402-2.953-10.186
			c-2.84-2.719-6.218-3.042-9.803-1.667c-9.303,3.568-18.871,6.029-28.833,6.722c-10.48,0.728-20.859-0.086-31.066-2.601
			c-21.36-5.262-38.46-16.8-50.175-35.5c-15.004-23.95-18.293-49.882-11.152-77.063c4.849-18.458,14.867-33.759,29.973-45.549
			c12.961-10.116,27.759-15.75,44.052-17.585c11.437-1.288,22.773-0.722,33.904,2.228c4.655,1.234,9.157,3.04,13.738,4.559
			c5.101,1.69,10.033-0.745,11.991-5.89c1.943-5.105-0.12-10.121-5.14-12.178c-11.103-4.55-22.66-7.242-34.625-8.084
			c-10.741-0.756-21.418-0.099-32.001,1.894c-13.74,2.588-26.573,7.49-38.227,15.284c-18.306,12.242-30.848,29.013-38.482,49.527
			c-6.816,18.316-8.847,37.226-6.511,56.617c1.533,12.72,4.993,24.889,10.647,36.39c10.599,21.558,26.628,37.629,48.602,47.556
			C305.118,500.422,321.004,503.175,337.413,503.287z M270.944,394.917c-0.1,0.013-0.199,0.025-0.299,0.038
			c0.507,4.722,0.773,9.485,1.566,14.159c2.22,13.085,7.662,24.687,16.859,34.344c11.978,12.578,26.825,19.177,44.054,20.482
			c15.506,1.175,30.01-2.188,43.473-9.988c3.818-2.212,5.509-5.731,4.714-9.749c-0.829-4.186-4.126-7.396-8.23-7.984
			c-2.469-0.354-4.597,0.591-6.724,1.698c-12.145,6.32-24.976,8.627-38.442,5.808c-16.027-3.355-27.706-12.388-34.037-27.682
			c-4.324-10.446-4.846-21.357-2.854-32.4c1.747-9.688,5.821-18.286,12.95-25.171c12.122-11.707,26.827-15.354,43.211-13.221
			c7.287,0.949,14.102,3.413,20.528,6.968c1.604,0.888,3.327,1.393,5.174,1.228c4.073-0.362,7.482-3.593,8.402-7.907
			c0.852-3.992-0.808-7.627-4.526-9.697c-16.012-8.914-33.037-12.505-51.195-9.177c-18.6,3.409-33.406,12.847-43.744,28.826
			C274.081,367.461,271.04,380.802,270.944,394.917z"/>
		<path d="M337.413,503.287c-16.409-0.113-32.295-2.865-47.326-9.656c-21.974-9.928-38.003-25.998-48.602-47.556
			c-5.654-11.501-9.114-23.67-10.647-36.39c-2.337-19.391-0.305-38.301,6.511-56.617c7.634-20.513,20.176-37.285,38.482-49.527
			c11.655-7.794,24.487-12.697,38.227-15.284c10.583-1.993,21.26-2.65,32.001-1.894c11.965,0.842,23.522,3.534,34.625,8.084
			c5.02,2.057,7.083,7.073,5.14,12.178c-1.958,5.145-6.89,7.581-11.991,5.89c-4.581-1.518-9.083-3.325-13.738-4.559
			c-11.132-2.95-22.467-3.516-33.904-2.228c-16.293,1.835-31.091,7.469-44.052,17.585c-15.106,11.79-25.124,27.091-29.973,45.549
			c-7.141,27.181-3.852,53.113,11.152,77.063c11.715,18.7,28.815,30.237,50.175,35.5c10.207,2.515,20.586,3.329,31.066,2.601
			c9.962-0.692,19.53-3.154,28.833-6.722c3.586-1.375,6.964-1.052,9.803,1.667c2.907,2.784,3.956,6.252,2.953,10.186
			c-0.725,2.841-2.699,4.647-5.36,5.734c-7.047,2.877-14.314,5.019-21.791,6.432C351.867,502.669,344.672,503.342,337.413,503.287z"
			/>
		<path d="M270.944,394.917c0.096-14.115,3.137-27.456,10.88-39.424c10.338-15.978,25.144-25.417,43.744-28.826
			c18.158-3.328,35.183,0.263,51.195,9.177c3.717,2.07,5.377,5.705,4.526,9.697c-0.92,4.314-4.329,7.545-8.402,7.907
			c-1.847,0.164-3.569-0.341-5.174-1.228c-6.426-3.555-13.241-6.019-20.528-6.968c-16.384-2.133-31.089,1.514-43.211,13.221
			c-7.128,6.884-11.203,15.482-12.95,25.171c-1.991,11.043-1.47,21.954,2.854,32.4c6.331,15.293,18.01,24.327,34.037,27.682
			c13.466,2.819,26.297,0.511,38.442-5.808c2.127-1.107,4.255-2.052,6.724-1.698c4.104,0.589,7.401,3.798,8.23,7.984
			c0.796,4.018-0.895,7.537-4.714,9.749c-13.463,7.8-27.967,11.163-43.473,9.988c-17.229-1.305-32.076-7.904-44.054-20.482
			c-9.196-9.657-14.639-21.26-16.859-34.344c-0.793-4.674-1.059-9.437-1.566-14.159
			C270.745,394.942,270.845,394.929,270.944,394.917z"/>
	</g>
</g>
</svg>
