<?xml version="1.0" encoding="utf-8"?>
<!-- Generator: Adobe Illustrator 17.0.0, SVG Export Plug-In . SVG Version: 6.00 Build 0)  -->
<!DOCTYPE svg PUBLIC "-//W3C//DTD SVG 1.1//EN" "http://www.w3.org/Graphics/SVG/1.1/DTD/svg11.dtd">
<svg version="1.1" id="Layer_1" xmlns="http://www.w3.org/2000/svg" xmlns:xlink="http://www.w3.org/1999/xlink" x="0px" y="0px"
	 width="612px" height="792px" viewBox="0 0 612 792" enable-background="new 0 0 612 792" xml:space="preserve">
<g>
	<g>
		<path fill="#FFFFFF" d="M186.24,516.24c0-80,0-160,0-240c80,0,160,0,240,0c0,80,0,160,0,240
			C346.24,516.24,266.24,516.24,186.24,516.24z M269.965,309.214c0.644,0,1.196,0,1.748,0c29.039,0,58.078,0,87.116-0.003
			c0.679,0,1.361-0.01,2.037-0.07c5.085-0.452,9.068-5.234,8.61-10.322c-0.47-5.223-4.568-8.896-9.962-8.897
			c-32.999-0.004-65.997-0.003-98.996-0.001c-5.84,0-9.956,4.115-9.956,9.972c-0.003,63.997-0.002,127.994,0.002,191.992
			c0,0.598,0.001,1.206,0.099,1.793c0.824,4.932,4.727,8.167,9.867,8.168c32.879,0.005,65.757,0.002,98.636,0.002
			c0.4,0,0.8,0.002,1.2-0.017c6.064-0.296,10.348-6.126,8.811-11.984c-1.198-4.566-4.919-7.296-10-7.297
			c-29.159-0.005-58.318-0.002-87.476-0.002c-0.551,0-1.103,0-1.736,0C269.965,424.752,269.965,367.094,269.965,309.214z
			 M308.231,443.879c0-6.377,0-12.628,0-18.957c0.604,0,1.121,0,1.639,0c10.357,0,20.714,0.007,31.07-0.011
			c1.033-0.002,2.094-0.036,3.095-0.262c4.976-1.123,8.132-5.647,7.544-10.708c-0.542-4.656-4.707-8.315-9.644-8.326
			c-14.355-0.032-28.711-0.024-43.067-0.008c-5.913,0.006-10.023,4.144-10.027,10.051c-0.007,12.516-0.007,25.032,0.009,37.548
			c0.001,0.873,0.056,1.77,0.257,2.615c1.059,4.44,4.921,7.375,9.699,7.377c20.234,0.009,40.468,0.004,60.701,0.003
			c0.24,0,0.481,0.008,0.719-0.013c3.807-0.326,6.724-2.101,8.33-5.588c1.602-3.479,1.156-6.886-1.158-9.945
			c-2.121-2.803-5.082-3.795-8.525-3.788c-16.355,0.03-32.71,0.013-49.065,0.013C309.299,443.879,308.79,443.879,308.231,443.879z
			 M308.212,347.76c0.562,0,1.035,0,1.509,0c16.594,0,33.189,0,49.783,0c3.386,0,6.171-1.298,8.152-4.044
			c2.172-3.012,2.417-6.326,0.834-9.645c-1.577-3.308-4.39-4.957-8.004-5.28c-0.397-0.036-0.799-0.029-1.199-0.029
			c-20.073-0.001-40.146-0.009-60.219,0.004c-6.026,0.004-10.14,3.737-10.172,9.433c-0.072,12.875-0.064,25.751-0.005,38.626
			c0.024,5.289,4.148,9.491,9.438,9.519c14.634,0.076,29.27,0.077,43.904-0.007c3.759-0.022,6.682-1.876,8.388-5.274
			c1.706-3.398,1.362-6.777-0.787-9.873c-2.054-2.96-5.042-4.128-8.596-4.119c-10.476,0.026-20.953,0.009-31.429,0.009
			c-0.509,0-1.019,0-1.595,0C308.212,360.609,308.212,354.268,308.212,347.76z"/>
		<path d="M269.965,309.214c0,57.881,0,115.538,0,173.333c0.633,0,1.184,0,1.736,0c29.159,0,58.317-0.002,87.476,0.002
			c5.082,0.001,8.803,2.73,10,7.297c1.537,5.859-2.748,11.688-8.811,11.984c-0.399,0.019-0.8,0.017-1.2,0.017
			c-32.879,0.001-65.757,0.003-98.636-0.002c-5.141-0.001-9.044-3.236-9.867-8.168c-0.098-0.587-0.099-1.195-0.099-1.793
			c-0.004-63.997-0.005-127.995-0.002-191.992c0-5.857,4.116-9.972,9.956-9.972c32.999-0.002,65.997-0.003,98.996,0.001
			c5.394,0.001,9.492,3.674,9.962,8.897c0.458,5.088-3.525,9.869-8.61,10.322c-0.676,0.06-1.358,0.07-2.037,0.07
			c-29.039,0.003-58.077,0.003-87.116,0.003C271.161,309.214,270.609,309.214,269.965,309.214z"/>
		<path d="M308.231,443.879c0.559,0,1.069,0,1.579,0c16.355,0,32.71,0.016,49.065-0.013c3.442-0.006,6.404,0.986,8.525,3.788
			c2.314,3.058,2.761,6.466,1.158,9.945c-1.606,3.487-4.523,5.262-8.33,5.588c-0.238,0.02-0.48,0.013-0.719,0.013
			c-20.234,0-40.468,0.006-60.701-0.003c-4.778-0.002-8.64-2.937-9.699-7.377c-0.202-0.845-0.256-1.742-0.257-2.615
			c-0.016-12.516-0.016-25.032-0.009-37.548c0.003-5.906,4.114-10.044,10.027-10.051c14.356-0.015,28.711-0.023,43.067,0.008
			c4.937,0.011,9.103,3.671,9.644,8.326c0.589,5.062-2.567,9.585-7.544,10.708c-1.001,0.226-2.062,0.26-3.095,0.262
			c-10.357,0.018-20.714,0.011-31.07,0.011c-0.517,0-1.035,0-1.639,0C308.231,431.251,308.231,437.502,308.231,443.879z"/>
		<path d="M308.212,347.76c0,6.508,0,12.849,0,19.319c0.576,0,1.086,0,1.595,0c10.476,0,20.953,0.018,31.429-0.009
			c3.554-0.009,6.542,1.158,8.596,4.119c2.149,3.097,2.493,6.475,0.787,9.873c-1.707,3.398-4.63,5.252-8.388,5.274
			c-14.634,0.084-29.27,0.083-43.904,0.007c-5.289-0.028-9.414-4.23-9.438-9.519c-0.059-12.875-0.066-25.751,0.005-38.626
			c0.032-5.696,4.146-9.429,10.172-9.433c20.073-0.013,40.146-0.005,60.219-0.004c0.4,0,0.802-0.006,1.199,0.029
			c3.614,0.323,6.427,1.972,8.004,5.28c1.583,3.319,1.338,6.633-0.834,9.645c-1.98,2.746-4.766,4.044-8.152,4.044
			c-16.594,0-33.189,0-49.783,0C309.247,347.76,308.774,347.76,308.212,347.76z"/>
	</g>
</g>
</svg>
