<?xml version="1.0" encoding="utf-8"?>
<!-- Generator: Adobe Illustrator 17.0.0, SVG Export Plug-In . SVG Version: 6.00 Build 0)  -->
<!DOCTYPE svg PUBLIC "-//W3C//DTD SVG 1.1//EN" "http://www.w3.org/Graphics/SVG/1.1/DTD/svg11.dtd">
<svg version="1.1" id="Layer_1" xmlns="http://www.w3.org/2000/svg" xmlns:xlink="http://www.w3.org/1999/xlink" x="0px" y="0px"
	 width="612px" height="792px" viewBox="0 0 612 792" enable-background="new 0 0 612 792" xml:space="preserve">
<g>
	<g>
		<path fill="#FFFFFF" d="M186.24,516.24c0-80,0-160,0-240c80,0,160,0,240,0c0,80,0,160,0,240
			C346.24,516.24,266.24,516.24,186.24,516.24z M286.922,367.022c0-0.693,0-1.246,0-1.799c0-21.559,0.004-43.117-0.011-64.676
			c-0.001-1.073-0.029-2.177-0.272-3.214c-1.11-4.741-5.693-7.92-10.512-7.373c-4.835,0.548-8.518,4.642-8.52,9.576
			c-0.013,25.638-0.008,51.277-0.005,76.915c0.001,5.838,4.128,9.947,9.983,9.948c18.959,0.003,37.917,0.002,56.876,0
			c5.899-0.001,10.037-3.992,10.045-9.881c0.033-25.558,0.036-51.117-0.037-76.675c-0.005-1.652-0.458-3.447-1.2-4.925
			c-1.982-3.946-6.505-5.789-10.788-4.689c-4.292,1.103-7.273,4.871-7.275,9.29c-0.011,21.998-0.005,43.997-0.005,65.995
			c0,0.498,0,0.995,0,1.506C312.374,367.022,299.746,367.022,286.922,367.022z M325.2,424.991c0,0.555,0,1.064,0,1.573
			c0,21.875-0.014,43.749,0.013,65.624c0.005,4.071,1.961,7.052,5.642,8.73c3.721,1.696,7.271,1.19,10.399-1.484
			c2.45-2.094,3.287-4.864,3.283-8.034c-0.029-25.114-0.016-50.227-0.018-75.341c0-0.519-0.01-1.04-0.049-1.558
			c-0.373-5.002-4.427-8.88-9.437-8.886c-19.315-0.026-38.63-0.028-57.946,0c-5.238,0.008-9.474,4.252-9.478,9.475
			c-0.02,25.754-0.024,51.507,0.001,77.261c0.006,6.383,6.168,10.889,12.303,9.093c4.422-1.294,7.003-4.898,7.005-9.847
			c0.007-21.635,0.003-43.269,0.003-64.904c0-0.545,0-1.09,0-1.701C299.749,424.991,312.406,424.991,325.2,424.991z M383.04,395.879
			c0-31.718,0-63.436,0-95.154c0-0.56,0.009-1.12-0.012-1.68c-0.218-5.597-5.678-9.993-11.196-9.019
			c-4.991,0.881-8.111,4.782-8.111,10.173c-0.002,63.796-0.002,127.592,0.002,191.389c0,0.599,0.023,1.2,0.081,1.796
			c0.45,4.59,4.509,8.35,9.115,8.456c5.764,0.133,10.118-4.138,10.119-9.966C383.043,459.875,383.04,427.877,383.04,395.879z
			 M228.96,395.757c0,32.078-0.004,64.156,0.004,96.234c0.002,6.802,6.469,11.506,12.813,9.352c4.151-1.409,6.504-5.017,6.504-9.995
			c0.001-63.636,0.001-127.272-0.003-190.908c0-0.679-0.023-1.361-0.087-2.036c-0.424-4.527-4.434-8.304-8.979-8.475
			c-5.796-0.218-10.249,4.093-10.25,9.954C228.958,331.841,228.96,363.799,228.96,395.757z"/>
		<path d="M286.922,367.022c12.824,0,25.453,0,38.279,0c0-0.511,0-1.009,0-1.506c0-21.998-0.006-43.997,0.005-65.995
			c0.002-4.419,2.984-8.187,7.275-9.29c4.283-1.101,8.806,0.742,10.788,4.689c0.742,1.478,1.196,3.273,1.2,4.925
			c0.073,25.558,0.07,51.116,0.037,76.675c-0.008,5.889-4.146,9.88-10.045,9.881c-18.959,0.002-37.917,0.003-56.876,0
			c-5.855-0.001-9.982-4.11-9.983-9.948c-0.003-25.638-0.008-51.277,0.005-76.915c0.003-4.934,3.685-9.028,8.52-9.576
			c4.818-0.546,9.402,2.632,10.512,7.373c0.243,1.037,0.271,2.141,0.272,3.214c0.015,21.559,0.011,43.117,0.011,64.676
			C286.922,365.776,286.922,366.329,286.922,367.022z"/>
		<path d="M325.2,424.991c-12.794,0-25.451,0-38.279,0c0,0.611,0,1.156,0,1.701c0,21.635,0.004,43.269-0.003,64.904
			c-0.001,4.949-2.582,8.552-7.005,9.847c-6.135,1.796-12.297-2.711-12.303-9.093c-0.025-25.754-0.021-51.507-0.001-77.261
			c0.004-5.223,4.24-9.467,9.478-9.475c19.315-0.028,38.63-0.026,57.946,0c5.01,0.007,9.064,3.884,9.437,8.886
			c0.039,0.518,0.049,1.039,0.049,1.558c0.002,25.114-0.011,50.227,0.018,75.341c0.004,3.171-0.834,5.94-3.283,8.034
			c-3.129,2.674-6.678,3.18-10.399,1.484c-3.681-1.678-5.637-4.659-5.642-8.73c-0.027-21.875-0.013-43.749-0.013-65.624
			C325.2,426.054,325.2,425.545,325.2,424.991z"/>
		<path d="M383.04,395.879c0,31.998,0.003,63.996-0.003,95.994c-0.001,5.827-4.355,10.098-10.119,9.966
			c-4.606-0.106-8.665-3.866-9.115-8.456c-0.058-0.596-0.081-1.197-0.081-1.796c-0.003-63.796-0.004-127.592-0.002-191.389
			c0-5.391,3.12-9.292,8.111-10.173c5.519-0.974,10.978,3.422,11.196,9.019c0.022,0.559,0.012,1.12,0.012,1.68
			C383.04,332.443,383.04,364.161,383.04,395.879z"/>
		<path d="M228.96,395.757c0-31.958-0.002-63.916,0.002-95.874c0.001-5.861,4.454-10.172,10.25-9.954
			c4.546,0.171,8.555,3.948,8.979,8.475c0.063,0.676,0.087,1.357,0.087,2.036c0.004,63.636,0.004,127.272,0.003,190.908
			c0,4.978-2.353,8.586-6.504,9.995c-6.344,2.153-12.812-2.551-12.813-9.352C228.956,459.913,228.96,427.835,228.96,395.757z"/>
	</g>
</g>
</svg>
