<?xml version="1.0" encoding="utf-8"?>
<!-- Generator: Adobe Illustrator 17.0.0, SVG Export Plug-In . SVG Version: 6.00 Build 0)  -->
<!DOCTYPE svg PUBLIC "-//W3C//DTD SVG 1.1//EN" "http://www.w3.org/Graphics/SVG/1.1/DTD/svg11.dtd">
<svg version="1.1" id="Layer_1" xmlns="http://www.w3.org/2000/svg" xmlns:xlink="http://www.w3.org/1999/xlink" x="0px" y="0px"
	 width="612px" height="792px" viewBox="0 0 612 792" enable-background="new 0 0 612 792" xml:space="preserve">
<g>
	<g>
		<path fill="#FFFFFF" d="M426.24,516.24c-80,0-160,0-240,0c0-80,0-160,0-240c80,0,160,0,240,0
			C426.24,356.24,426.24,436.24,426.24,516.24z M336.24,389.071c-0.45-0.607-0.712-0.942-0.955-1.29
			c-12.069-17.269-24.136-34.539-36.203-51.808c-9.686-13.862-19.354-27.736-29.07-41.576c-2.35-3.347-5.658-4.923-9.688-3.938
			c-3.927,0.959-6.619,3.496-7.466,7.594c-0.613,2.964,0.372,5.558,2.07,7.993c26.779,38.397,53.539,76.808,80.304,115.215
			c0.914,1.312,1.797,2.647,2.749,3.931c3.271,4.416,8.686,5.32,13.258,2.311c3.291-2.167,4.339-5.307,4.337-9.061
			c-0.02-39.28-0.012-78.559-0.015-117.839c0-0.559-0.02-1.12-0.055-1.678c-0.142-2.254-1.056-4.161-2.645-5.747
			c-2.762-2.757-6.954-3.55-10.668-2.032c-3.739,1.528-5.95,4.817-5.95,8.88c-0.002,29.08-0.001,58.16-0.001,87.239
			C336.24,387.745,336.24,388.224,336.24,389.071z M275.52,403.473c0.074-0.026,0.148-0.053,0.221-0.079
			c0.252,0.348,0.51,0.693,0.757,1.045c21.569,30.865,43.134,61.732,64.719,92.586c0.68,0.973,1.482,1.901,2.378,2.675
			c3.904,3.371,10.667,2.821,13.472-1.233c2.651-3.83,2.818-8.346,0.133-12.186c-10.009-14.317-20.027-28.627-30.039-42.941
			c-17.848-25.516-35.689-51.038-53.548-76.546c-2.225-3.178-5.366-4.642-9.158-3.856c-3.585,0.743-6.371,2.814-7.481,6.5
			c-0.383,1.272-0.436,2.679-0.437,4.025c-0.022,39.315-0.018,78.63-0.017,117.946c0,0.52,0.001,1.04,0.023,1.559
			c0.162,3.819,2.803,7.259,6.446,8.404c6.225,1.957,12.524-2.733,12.526-9.362c0.009-29.036,0.004-58.073,0.004-87.109
			C275.52,404.425,275.52,403.949,275.52,403.473z M394.174,396.031c0-26.473,0-52.947,0-79.42c0-5.519-0.015-11.037,0.007-16.556
			c0.009-2.195-0.543-4.182-1.905-5.925c-2.496-3.195-7.085-4.518-11.045-3.178c-3.936,1.332-6.351,4.77-6.351,9.062
			c-0.001,63.984-0.001,127.968,0,191.952c0,0.28-0.005,0.56,0.004,0.84c0.224,6.527,6.978,11.031,12.998,8.669
			c3.972-1.558,6.289-5.164,6.29-9.828C394.176,459.775,394.174,427.903,394.174,396.031z M236.92,396.022
			c0-31.679,0-63.358-0.001-95.037c0-0.6,0.006-1.2-0.018-1.8c-0.094-2.432-0.981-4.546-2.79-6.165
			c-3.098-2.773-6.673-3.307-10.493-1.797c-3.58,1.415-5.697,4.737-5.697,8.661c-0.002,64.078-0.001,128.156-0.001,192.234
			c0,0.24-0.003,0.48,0.005,0.72c0.143,3.835,2.892,7.505,6.58,8.788c3.573,1.243,7.461,0.177,10.003-2.76
			c1.82-2.103,2.43-4.578,2.428-7.327C236.911,459.7,236.92,427.861,236.92,396.022z"/>
		<path d="M336.24,389.071c0-0.847,0-1.326,0-1.805c0-29.08-0.001-58.16,0.001-87.239c0-4.063,2.211-7.352,5.95-8.88
			c3.714-1.518,7.906-0.725,10.668,2.032c1.589,1.586,2.504,3.492,2.645,5.747c0.035,0.558,0.055,1.119,0.055,1.678
			c0.002,39.28-0.006,78.559,0.015,117.839c0.002,3.754-1.045,6.894-4.337,9.061c-4.572,3.009-9.986,2.105-13.258-2.311
			c-0.952-1.284-1.835-2.619-2.749-3.931c-26.765-38.407-53.525-76.818-80.304-115.215c-1.698-2.435-2.683-5.029-2.07-7.993
			c0.847-4.098,3.54-6.635,7.466-7.594c4.031-0.985,7.339,0.591,9.688,3.938c9.716,13.841,19.384,27.714,29.07,41.576
			c12.067,17.27,24.134,34.54,36.203,51.808C335.528,388.129,335.79,388.464,336.24,389.071z"/>
		<path d="M275.52,403.473c0,0.476,0,0.951,0,1.427c0,29.036,0.005,58.073-0.004,87.109c-0.002,6.63-6.302,11.319-12.526,9.362
			c-3.644-1.145-6.284-4.585-6.446-8.404c-0.022-0.519-0.023-1.04-0.023-1.559c-0.001-39.315-0.005-78.631,0.017-117.946
			c0.001-1.346,0.054-2.753,0.437-4.025c1.11-3.686,3.896-5.757,7.481-6.5c3.792-0.786,6.933,0.678,9.158,3.856
			c17.859,25.508,35.7,51.03,53.548,76.546c10.012,14.314,20.03,28.624,30.039,42.941c2.685,3.84,2.517,8.356-0.133,12.186
			c-2.806,4.054-9.569,4.604-13.472,1.233c-0.896-0.774-1.698-1.702-2.378-2.675c-21.585-30.853-43.15-61.721-64.719-92.586
			c-0.246-0.352-0.504-0.697-0.757-1.045C275.668,403.421,275.594,403.447,275.52,403.473z"/>
		<path d="M394.174,396.031c0,31.872,0.001,63.744-0.001,95.616c0,4.664-2.318,8.27-6.29,9.828
			c-6.02,2.362-12.774-2.142-12.998-8.669c-0.01-0.28-0.004-0.56-0.004-0.84c0-63.984,0-127.968,0-191.952
			c0-4.292,2.414-7.73,6.351-9.062c3.96-1.34,8.548-0.017,11.045,3.178c1.362,1.743,1.913,3.73,1.905,5.925
			c-0.022,5.519-0.007,11.037-0.007,16.556C394.174,343.084,394.174,369.558,394.174,396.031z"/>
		<path d="M236.92,396.022c0,31.839-0.009,63.678,0.016,95.517c0.002,2.749-0.608,5.224-2.428,7.327
			c-2.542,2.938-6.431,4.003-10.003,2.76c-3.688-1.283-6.437-4.954-6.58-8.788c-0.009-0.24-0.005-0.48-0.005-0.72
			c0-64.078-0.001-128.156,0.001-192.234c0-3.924,2.117-7.246,5.697-8.661c3.821-1.51,7.396-0.976,10.493,1.797
			c1.809,1.62,2.696,3.734,2.79,6.165c0.023,0.599,0.018,1.2,0.018,1.8C236.92,332.664,236.92,364.343,236.92,396.022z"/>
	</g>
</g>
</svg>
