<?xml version="1.0" encoding="utf-8"?>
<!-- Generator: Adobe Illustrator 17.0.0, SVG Export Plug-In . SVG Version: 6.00 Build 0)  -->
<!DOCTYPE svg PUBLIC "-//W3C//DTD SVG 1.1//EN" "http://www.w3.org/Graphics/SVG/1.1/DTD/svg11.dtd">
<svg version="1.1" id="Layer_1" xmlns="http://www.w3.org/2000/svg" xmlns:xlink="http://www.w3.org/1999/xlink" x="0px" y="0px"
	 width="612px" height="792px" viewBox="0 0 612 792" enable-background="new 0 0 612 792" xml:space="preserve">
<g>
	<g>
		<path fill="#FFFFFF" d="M426.24,516.24c-80,0-160,0-240,0c0-80,0-160,0-240c80,0,160,0,240,0
			C426.24,356.24,426.24,436.24,426.24,516.24z M198.153,397.139c0.123,2.16,0.242,5.799,0.55,9.422
			c1.209,14.235,4.799,27.847,11.059,40.702c10.727,22.026,27.051,38.401,49.479,48.482c13.439,6.04,27.623,8.866,42.297,9.556
			c15.995,0.753,31.532-1.464,46.421-7.372c32.225-12.787,54.202-35.525,65.65-68.315c0.439-1.258,0.678-2.652,0.68-3.983
			c0.009-5.093-3.276-8.951-8.064-9.659c-5.021-0.742-9.445,1.975-11.052,6.76c-8.636,25.729-25.428,44.165-50.153,55.142
			c-20.049,8.901-40.945,9.797-62.112,4.794c-20.519-4.85-36.999-15.906-49.03-33.3c-9.737-14.078-14.776-29.828-15.967-46.841
			c-1.149-16.41,1.431-32.215,8.249-47.215c8.811-19.384,22.768-33.78,42.417-42.218c18.325-7.869,37.509-9.869,56.975-5.84
			c32.592,6.746,55.224,25.874,67.996,56.625c0.627,1.51,1.145,3.068,1.664,4.62c1.803,5.399,7.056,8.05,12.549,6.311
			c5.062-1.602,7.825-6.967,6.115-12.243c-7.495-23.113-21.152-41.858-40.808-56.025c-16.6-11.964-35.317-18.595-55.74-20.266
			c-14.272-1.168-28.373-0.045-42.204,3.682c-25.72,6.931-45.868,21.554-59.95,44.232
			C203.506,352.984,198.339,373.646,198.153,397.139z M307.957,325.884c-13.198,0.315-24.202,3.261-34.369,9.157
			c-10.883,6.311-19.267,15.104-25.397,26.046c-2.608,4.654-0.972,10.518,3.48,13.087c4.658,2.687,10.297,1.08,13.257-3.563
			c1.756-2.755,3.615-5.504,5.807-7.91c12.48-13.698,27.852-19.678,46.275-16.287c24.269,4.468,45.022,28.743,39.266,59.14
			c-2.015,10.641-7.14,19.584-15.001,26.99c-11.504,10.837-25.202,15.078-40.702,12.743c-12.594-1.896-22.867-8.291-30.959-18.102
			c-1.774-2.15-3.315-4.506-4.826-6.856c-2.597-4.04-7.385-5.547-11.989-3.651c-4.192,1.726-6.781,6.513-5.507,10.898
			c0.621,2.137,1.86,4.144,3.069,6.051c5.969,9.41,13.619,17.232,23.315,22.722c13.28,7.519,27.614,10.521,42.85,8.562
			c15.972-2.053,29.754-8.758,40.698-20.525c16.335-17.564,22.497-38.434,18.281-62.082c-2.583-14.487-9.274-27.056-19.928-37.231
			C341.902,332.013,325.377,325.844,307.957,325.884z"/>
		<path d="M198.153,397.139c0.186-23.494,5.353-44.155,17.023-62.949c14.082-22.678,34.23-37.301,59.95-44.232
			c13.831-3.727,27.932-4.849,42.204-3.682c20.423,1.671,39.14,8.302,55.74,20.266c19.657,14.167,33.314,32.912,40.808,56.025
			c1.711,5.275-1.053,10.641-6.115,12.243c-5.494,1.739-10.746-0.912-12.549-6.311c-0.518-1.552-1.037-3.11-1.664-4.62
			c-12.772-30.751-35.405-49.879-67.996-56.625c-19.466-4.029-38.65-2.03-56.975,5.84c-19.649,8.438-33.606,22.834-42.417,42.218
			c-6.818,15-9.398,30.804-8.249,47.215c1.191,17.012,6.23,32.763,15.967,46.841c12.031,17.394,28.511,28.45,49.03,33.3
			c21.166,5.003,42.062,4.107,62.112-4.794c24.724-10.977,41.516-29.412,50.153-55.142c1.606-4.786,6.03-7.503,11.052-6.76
			c4.787,0.708,8.073,4.566,8.064,9.659c-0.002,1.331-0.241,2.726-0.68,3.983c-11.449,32.79-33.425,55.528-65.65,68.315
			c-14.889,5.908-30.426,8.125-46.421,7.372c-14.674-0.691-28.858-3.516-42.297-9.556c-22.428-10.08-38.752-26.455-49.479-48.482
			c-6.26-12.855-9.85-26.467-11.059-40.702C198.395,402.939,198.275,399.3,198.153,397.139z"/>
		<path d="M307.957,325.884c17.42-0.04,33.945,6.129,47.62,19.189c10.654,10.175,17.345,22.744,19.928,37.231
			c4.217,23.649-1.946,44.519-18.281,62.082c-10.943,11.766-24.726,18.472-40.698,20.525c-15.236,1.958-29.57-1.043-42.85-8.562
			c-9.697-5.49-17.347-13.312-23.315-22.722c-1.209-1.907-2.449-3.914-3.069-6.051c-1.274-4.385,1.316-9.171,5.507-10.898
			c4.604-1.896,9.392-0.388,11.989,3.651c1.51,2.35,3.052,4.706,4.826,6.856c8.092,9.81,18.365,16.205,30.959,18.102
			c15.5,2.334,29.198-1.907,40.702-12.743c7.861-7.406,12.986-16.349,15.001-26.99c5.756-30.397-14.997-54.672-39.266-59.14
			c-18.422-3.391-33.794,2.589-46.275,16.287c-2.192,2.406-4.051,5.156-5.807,7.91c-2.96,4.644-8.599,6.25-13.257,3.563
			c-4.452-2.568-6.088-8.432-3.48-13.087c6.13-10.942,14.514-19.735,25.397-26.046C283.755,329.145,294.758,326.198,307.957,325.884
			z"/>
	</g>
</g>
</svg>
