<?xml version="1.0" encoding="utf-8"?>
<!-- Generator: Adobe Illustrator 17.0.0, SVG Export Plug-In . SVG Version: 6.00 Build 0)  -->
<!DOCTYPE svg PUBLIC "-//W3C//DTD SVG 1.1//EN" "http://www.w3.org/Graphics/SVG/1.1/DTD/svg11.dtd">
<svg version="1.1" id="Layer_1" xmlns="http://www.w3.org/2000/svg" xmlns:xlink="http://www.w3.org/1999/xlink" x="0px" y="0px"
	 width="612px" height="792px" viewBox="0 0 612 792" enable-background="new 0 0 612 792" xml:space="preserve">
<g>
	<g>
		<path fill="#FFFFFF" d="M186.24,276.24c80,0,160,0,240,0c0,80,0,160,0,240c-80,0-160,0-240,0
			C186.24,436.24,186.24,356.24,186.24,276.24z M276.017,347.76c0,0.658,0,1.171,0,1.684c0,47.157,0,94.314,0,141.47
			c0,0.48-0.009,0.96,0.008,1.44c0.18,5.187,4.565,9.457,9.737,9.485c5.679,0.031,9.877-4.315,9.877-10.256
			c0.003-50.797,0.003-101.593,0.001-152.39c0-6.372-4.043-10.427-10.407-10.433c-7.279-0.007-14.559-0.003-21.839-0.001
			c-8.599,0.003-17.2-0.07-25.798,0.039c-6.28,0.079-10.726,6.408-8.885,12.402c1.199,3.906,4.932,6.549,9.344,6.554
			c12.119,0.013,24.238,0.005,36.358,0.005C274.889,347.76,275.364,347.76,276.017,347.76z M333.934,347.76c0.635,0,1.111,0,1.587,0
			c12.239,0,24.479,0.026,36.718-0.036c1.4-0.007,2.893-0.288,4.18-0.829c4.017-1.687,6.045-6.01,5.136-10.532
			c-0.9-4.477-4.537-7.585-9.054-7.592c-16.079-0.025-32.159-0.012-48.238-0.003c-0.636,0-1.286,0.034-1.906,0.164
			c-4.636,0.968-7.714,4.879-7.715,9.793c-0.003,43.558-0.001,87.116-0.001,130.674c0,7.64-0.02,15.279,0.009,22.919
			c0.015,3.907,2.469,7.425,6.071,8.863c3.59,1.433,7.757,0.52,10.489-2.302c2.076-2.145,2.741-4.756,2.74-7.681
			c-0.021-47.198-0.015-94.396-0.015-141.594C333.934,349.05,333.934,348.496,333.934,347.76z M305.291,309.4
			c22.275,0,44.551-0.075,66.826,0.048c6.244,0.035,11.024-5.806,9.289-12.216c-1.156-4.271-4.593-6.829-9.262-6.83
			c-44.591-0.004-89.182-0.002-133.773-0.002c-0.32,0-0.64,0-0.96,0.014c-6.075,0.281-10.268,5.759-8.922,11.651
			c0.993,4.345,4.934,7.33,9.735,7.332C260.58,309.404,282.936,309.4,305.291,309.4z"/>
		<path d="M276.017,347.76c-0.652,0-1.128,0-1.604,0c-12.119,0-24.238,0.009-36.358-0.005c-4.412-0.005-8.145-2.648-9.344-6.554
			c-1.84-5.994,2.606-12.323,8.885-12.402c8.598-0.109,17.198-0.036,25.798-0.039c7.279-0.002,14.559-0.005,21.839,0.001
			c6.364,0.006,10.407,4.061,10.407,10.433c0.001,50.797,0.002,101.593-0.001,152.39c0,5.941-4.199,10.287-9.877,10.256
			c-5.172-0.028-9.557-4.298-9.737-9.485c-0.017-0.479-0.008-0.96-0.008-1.44c0-47.157,0-94.314,0-141.47
			C276.017,348.931,276.017,348.418,276.017,347.76z"/>
		<path d="M333.934,347.76c0,0.735,0,1.29,0,1.844c0,47.198-0.006,94.396,0.015,141.594c0.001,2.924-0.664,5.536-2.74,7.681
			c-2.732,2.822-6.899,3.735-10.489,2.302c-3.602-1.438-6.056-4.957-6.071-8.863c-0.029-7.64-0.009-15.279-0.009-22.919
			c0-43.558-0.001-87.116,0.001-130.674c0-4.913,3.079-8.825,7.715-9.793c0.62-0.129,1.27-0.164,1.906-0.164
			c16.079-0.009,32.159-0.022,48.238,0.003c4.517,0.007,8.154,3.115,9.054,7.592c0.909,4.522-1.118,8.845-5.136,10.532
			c-1.287,0.541-2.779,0.822-4.18,0.829c-12.239,0.063-24.479,0.036-36.718,0.036C335.045,347.76,334.569,347.76,333.934,347.76z"/>
		<path d="M305.291,309.4c-22.355,0-44.711,0.003-67.066-0.003c-4.8-0.001-8.742-2.987-9.735-7.332
			c-1.346-5.892,2.847-11.37,8.922-11.651c0.319-0.015,0.64-0.014,0.96-0.014c44.591-0.001,89.182-0.002,133.773,0.002
			c4.669,0,8.106,2.558,9.262,6.83c1.734,6.41-3.045,12.251-9.289,12.216C349.843,309.325,327.567,309.4,305.291,309.4z"/>
	</g>
</g>
</svg>
