<?xml version="1.0" encoding="utf-8"?>
<!-- Generator: Adobe Illustrator 17.0.0, SVG Export Plug-In . SVG Version: 6.00 Build 0)  -->
<!DOCTYPE svg PUBLIC "-//W3C//DTD SVG 1.1//EN" "http://www.w3.org/Graphics/SVG/1.1/DTD/svg11.dtd">
<svg version="1.1" id="Layer_1" xmlns="http://www.w3.org/2000/svg" xmlns:xlink="http://www.w3.org/1999/xlink" x="0px" y="0px"
	 width="612px" height="792px" viewBox="0 0 612 792" enable-background="new 0 0 612 792" xml:space="preserve">
<g>
	<g>
		<path fill="#FFFFFF" d="M426.24,516.24c-80,0-160,0-240,0c0-80,0-160,0-240c80,0,160,0,240,0
			C426.24,356.24,426.24,436.24,426.24,516.24z M306.339,475.597c-0.278-0.64-0.488-1.1-0.679-1.568
			c-20.376-49.86-40.751-99.721-61.125-149.582c-3.851-9.425-7.679-18.86-11.561-28.273c-2.788-6.76-11.253-8.451-16.015-3.18
			c-2.978,3.296-3.196,7.102-1.573,11.083c24.809,60.859,49.627,121.714,74.442,182.57c2.367,5.805,4.714,11.617,7.092,17.417
			c1.804,4.401,5.365,6.768,9.922,6.4c4.289-0.346,6.898-2.917,8.475-6.786c25.372-62.268,50.758-124.53,76.141-186.793
			c1.869-4.585,3.795-9.148,5.59-13.761c2.262-5.814-1.153-12.11-7.025-13.112c-4.478-0.764-8.923,1.925-10.805,6.547
			c-22.111,54.327-44.22,108.654-66.331,162.981C310.735,464.829,308.576,470.112,306.339,475.597z M306.345,368.738
			c-0.257-0.559-0.417-0.877-0.552-1.205c-6.254-15.214-12.506-30.429-18.757-45.644c-3.536-8.605-7.064-17.212-10.608-25.813
			c-2.412-5.853-8.789-7.276-12.93-5.441c-4.739,2.101-6.73,7.544-4.745,12.454c12.691,31.388,25.382,62.776,38.091,94.158
			c0.371,0.917,0.825,1.839,1.421,2.62c2.344,3.068,5.544,4.274,9.303,3.772c3.674-0.491,6.145-2.626,7.553-6.06
			c12.828-31.29,25.672-62.573,38.486-93.868c0.402-0.983,0.629-2.067,0.758-3.126c0.538-4.422-2.733-9.319-6.854-10.363
			c-4.784-1.212-9.677,1.156-11.469,5.559c-7.223,17.751-14.441,35.504-21.665,53.255
			C311.73,355.54,309.074,362.044,306.345,368.738z"/>
		<path d="M306.339,475.597c2.237-5.485,4.395-10.768,6.547-16.054c22.111-54.327,44.22-108.654,66.331-162.981
			c1.881-4.622,6.326-7.311,10.805-6.547c5.872,1.002,9.287,7.298,7.025,13.112c-1.795,4.613-3.721,9.176-5.59,13.761
			c-25.383,62.263-50.769,124.525-76.141,186.793c-1.577,3.869-4.186,6.44-8.475,6.786c-4.557,0.367-8.117-2-9.922-6.4
			c-2.378-5.8-4.725-11.613-7.092-17.417c-24.815-60.856-49.633-121.711-74.442-182.57c-1.623-3.981-1.405-7.787,1.573-11.083
			c4.763-5.271,13.227-3.581,16.015,3.18c3.882,9.413,7.71,18.848,11.561,28.273c20.375,49.861,40.749,99.721,61.125,149.582
			C305.852,474.497,306.062,474.957,306.339,475.597z"/>
		<path d="M306.345,368.738c2.729-6.694,5.385-13.198,8.033-19.705c7.223-17.751,14.442-35.504,21.665-53.255
			c1.791-4.403,6.684-6.771,11.469-5.559c4.122,1.044,7.392,5.941,6.854,10.363c-0.129,1.059-0.356,2.144-0.758,3.126
			c-12.814,31.296-25.659,62.578-38.486,93.868c-1.408,3.435-3.879,5.569-7.553,6.06c-3.759,0.502-6.959-0.704-9.303-3.772
			c-0.597-0.781-1.05-1.703-1.421-2.62c-12.708-31.381-25.4-62.769-38.091-94.158c-1.985-4.91,0.006-10.354,4.745-12.454
			c4.141-1.836,10.518-0.413,12.93,5.441c3.544,8.601,7.072,17.209,10.608,25.813c6.252,15.215,12.504,30.43,18.757,45.644
			C305.928,367.861,306.088,368.179,306.345,368.738z"/>
	</g>
</g>
</svg>
