<?xml version="1.0" encoding="utf-8"?>
<!-- Generator: Adobe Illustrator 17.0.0, SVG Export Plug-In . SVG Version: 6.00 Build 0)  -->
<!DOCTYPE svg PUBLIC "-//W3C//DTD SVG 1.1//EN" "http://www.w3.org/Graphics/SVG/1.1/DTD/svg11.dtd">
<svg version="1.1" id="Layer_1" xmlns="http://www.w3.org/2000/svg" xmlns:xlink="http://www.w3.org/1999/xlink" x="0px" y="0px"
	 width="612px" height="792px" viewBox="0 0 612 792" enable-background="new 0 0 612 792" xml:space="preserve">
<g>
	<g>
		<path fill="#FFFFFF" d="M186.24,516.24c0-80,0-160,0-240c80,0,160,0,240,0c0,80,0,160,0,240
			C346.24,516.24,266.24,516.24,186.24,516.24z M286.922,347.76c-0.176,0.494-0.292,0.868-0.439,1.229
			c-12.097,29.606-24.197,59.211-36.296,88.816c-6.797,16.632-13.585,33.268-20.393,49.896c-0.873,2.133-1.229,4.307-0.713,6.563
			c1.059,4.633,4.925,7.568,9.92,7.568c43.718,0.002,87.437,0.001,131.155,0.001c0.32,0,0.64,0.005,0.96-0.008
			c3.821-0.156,6.897-2.381,8.229-5.949c2.172-5.822-0.81-12.048-6.438-13.328c-1.078-0.245-2.222-0.282-3.335-0.283
			c-38.359-0.014-76.717-0.011-115.076-0.011c-0.511,0-1.021,0-1.718,0c0.234-0.604,0.395-1.041,0.572-1.472
			c17.851-43.645,35.706-87.289,53.55-130.938c1.208-2.954,2.542-5.88,3.451-8.929c1.579-5.297-0.974-10.281-5.953-11.819
			c-1.571-0.485-3.302-0.626-4.96-0.63c-17.119-0.044-34.239-0.028-51.358-0.022c-0.839,0-1.682,0.023-2.516,0.108
			c-2.101,0.213-3.971,1.004-5.396,2.578c-2.954,3.264-3.436,7.028-1.887,11.049c1.381,3.584,4.562,5.575,8.701,5.578
			c12.84,0.01,25.679,0.004,38.519,0.004C285.931,347.76,286.362,347.76,286.922,347.76z M344.254,308.92
			c-0.224,0.592-0.368,0.995-0.529,1.392c-17.753,43.682-35.51,87.362-53.257,131.046c-1.442,3.549-3.035,7.058-4.169,10.706
			c-1.523,4.902,1.04,9.473,5.734,10.745c1.026,0.278,2.129,0.374,3.197,0.375c24.958,0.02,49.915,0.016,74.873,0.015
			c0.4,0,0.801,0.003,1.2-0.019c4.752-0.267,8.311-3.831,8.654-8.659c0.379-5.34-2.51-9.506-7.306-10.428
			c-1.05-0.202-2.149-0.206-3.226-0.206c-19.238-0.011-38.476-0.008-57.714-0.008c-0.493,0-0.985,0-1.612,0
			c0.234-0.632,0.374-1.044,0.537-1.445c14.122-34.599,28.248-69.197,42.37-103.795c4.768-11.681,9.525-23.366,14.297-35.046
			c0.774-1.895,1.125-3.84,0.733-5.861c-0.926-4.78-4.784-7.809-9.927-7.81c-36.956-0.003-73.913-0.002-110.869-0.001
			c-0.36,0-0.72-0.003-1.08,0.017c-4.67,0.257-8.056,3.514-8.616,8.283c-0.566,4.817,2.007,9.054,6.361,10.264
			c1.21,0.336,2.523,0.417,3.789,0.418c31.597,0.022,63.194,0.017,94.791,0.017C343.001,308.92,343.519,308.92,344.254,308.92z"/>
		<path d="M286.922,347.76c-0.56,0-0.991,0-1.422,0c-12.84,0-25.679,0.006-38.519-0.004c-4.138-0.003-7.32-1.994-8.701-5.578
			c-1.549-4.021-1.067-7.785,1.887-11.049c1.424-1.574,3.295-2.365,5.396-2.578c0.834-0.084,1.677-0.108,2.516-0.108
			c17.119-0.006,34.239-0.021,51.358,0.022c1.659,0.004,3.389,0.145,4.96,0.63c4.979,1.538,7.532,6.522,5.953,11.819
			c-0.909,3.048-2.243,5.974-3.451,8.929c-17.844,43.648-35.699,87.292-53.55,130.938c-0.176,0.431-0.338,0.868-0.572,1.472
			c0.697,0,1.207,0,1.718,0c38.359,0,76.717-0.002,115.076,0.011c1.113,0,2.257,0.038,3.335,0.283
			c5.628,1.28,8.611,7.507,6.438,13.328c-1.331,3.568-4.408,5.794-8.229,5.949c-0.32,0.013-0.64,0.008-0.96,0.008
			c-43.718,0-87.437,0.001-131.155-0.001c-4.995,0-8.861-2.935-9.92-7.568c-0.515-2.256-0.16-4.43,0.713-6.563
			c6.808-16.628,13.596-33.264,20.393-49.896c12.098-29.606,24.199-59.21,36.296-88.816
			C286.63,348.628,286.746,348.254,286.922,347.76z"/>
		<path d="M344.254,308.92c-0.734,0-1.252,0-1.77,0c-31.597,0-63.194,0.005-94.791-0.017c-1.266-0.001-2.579-0.082-3.789-0.418
			c-4.355-1.21-6.927-5.447-6.361-10.264c0.56-4.769,3.946-8.026,8.616-8.283c0.359-0.02,0.72-0.017,1.08-0.017
			c36.956-0.001,73.913-0.002,110.869,0.001c5.143,0,9.002,3.03,9.927,7.81c0.391,2.021,0.041,3.966-0.733,5.861
			c-4.772,11.679-9.529,23.365-14.297,35.046c-14.122,34.599-28.248,69.197-42.37,103.795c-0.164,0.401-0.303,0.813-0.537,1.445
			c0.627,0,1.12,0,1.612,0c19.238,0,38.476-0.003,57.714,0.008c1.077,0.001,2.176,0.004,3.226,0.206
			c4.797,0.922,7.685,5.088,7.306,10.428c-0.342,4.828-3.902,8.392-8.654,8.659c-0.399,0.022-0.8,0.019-1.2,0.019
			c-24.958,0.001-49.915,0.005-74.873-0.015c-1.068-0.001-2.172-0.097-3.197-0.375c-4.695-1.273-7.258-5.843-5.734-10.745
			c1.134-3.648,2.727-7.157,4.169-10.706c17.747-43.684,35.504-87.364,53.257-131.046
			C343.886,309.916,344.029,309.512,344.254,308.92z"/>
	</g>
</g>
</svg>
