<?xml version="1.0" encoding="utf-8"?>
<!-- Generator: Adobe Illustrator 17.0.0, SVG Export Plug-In . SVG Version: 6.00 Build 0)  -->
<!DOCTYPE svg PUBLIC "-//W3C//DTD SVG 1.1//EN" "http://www.w3.org/Graphics/SVG/1.1/DTD/svg11.dtd">
<svg version="1.1" id="Layer_1" xmlns="http://www.w3.org/2000/svg" xmlns:xlink="http://www.w3.org/1999/xlink" x="0px" y="0px"
	 width="612px" height="792px" viewBox="0 0 612 792" enable-background="new 0 0 612 792" xml:space="preserve">
<g>
	<g>
		<path fill="#FFFFFF" d="M79.24,428.56c0-21.479,0-42.877,0-64.297c151.36,0,302.721,0,454.074,0c0,21.431,0,42.864,0,64.297
			C381.964,428.56,230.621,428.56,79.24,428.56z M283.621,397.175c0.143,1.355,0.194,2.843,0.469,4.288
			c2.047,10.775,9.311,17.357,20.225,18.388c9.362,0.884,18.671-4.109,22.901-12.331c0.581-1.129,1.129-2.323,1.382-3.552
			c0.132-0.641-0.224-1.617-0.707-2.077c-0.395-0.376-1.426-0.465-1.956-0.216c-0.587,0.276-1.109,1.015-1.345,1.666
			c-4.766,13.169-20.238,15.242-29.034,9.297c-8.203-5.545-10.312-17.962-4.537-26.534c5.896-8.752,19.26-10.348,27.706-3.316
			c2.804,2.335,4.773,5.235,5.992,8.666c0.461,1.299,1.442,1.81,2.602,1.443c1.155-0.365,1.634-1.365,1.276-2.693
			c-0.093-0.346-0.219-0.685-0.351-1.018c-5.47-13.857-20.454-17.988-31.982-12.724
			C287.563,380.435,284.122,387.886,283.621,397.175z M351.537,413.663c-0.268-0.608-0.436-0.967-0.586-1.335
			c-4.803-11.748-9.604-23.496-14.405-35.245c-0.121-0.296-0.219-0.603-0.368-0.884c-0.49-0.924-1.508-1.366-2.417-1.07
			c-0.947,0.308-1.493,1.198-1.326,2.27c0.066,0.425,0.245,0.839,0.41,1.243c3.672,9.019,7.351,18.036,11.027,27.054
			c1.868,4.583,3.725,9.17,5.607,13.747c0.614,1.492,2.076,2.037,3.145,1.141c0.43-0.36,0.725-0.944,0.945-1.482
			c4.568-11.154,9.119-22.315,13.669-33.476c1.07-2.624,2.153-5.242,3.176-7.885c0.421-1.088-0.1-2.174-1.096-2.576
			c-0.914-0.369-2.009,0.079-2.522,1.052c-0.167,0.317-0.288,0.658-0.423,0.991c-3.069,7.541-6.136,15.083-9.205,22.625
			C355.319,404.378,353.468,408.92,351.537,413.663z M386.058,381.433c0.25,0.569,0.422,0.927,0.568,1.295
			c4.264,10.723,8.525,21.446,12.788,32.169c0.369,0.927,0.714,1.866,1.13,2.772c0.486,1.057,1.602,1.541,2.569,1.181
			c1.038-0.387,1.513-1.5,1.133-2.669c-0.074-0.227-0.166-0.449-0.254-0.672c-5.273-13.2-10.552-26.398-15.811-39.604
			c-0.397-0.997-0.869-1.823-2.076-1.833c-1.206-0.01-1.708,0.797-2.106,1.797c-2.094,5.269-4.218,10.526-6.329,15.788
			c-3.197,7.967-6.393,15.935-9.585,23.903c-0.606,1.512-0.236,2.791,0.925,3.272c1.126,0.467,2.243-0.23,2.878-1.795
			c0.03-0.074,0.071-0.143,0.101-0.218c2.419-6.085,4.836-12.171,7.255-18.256C381.483,392.928,383.727,387.292,386.058,381.433z
			 M506.063,381.426c0.258,0.603,0.438,1,0.6,1.405c4.487,11.278,8.972,22.557,13.459,33.836c0.162,0.408,0.301,0.831,0.515,1.211
			c0.526,0.935,1.667,1.328,2.575,0.927c0.94-0.416,1.395-1.453,1.077-2.5c-0.116-0.381-0.272-0.751-0.42-1.122
			c-2.62-6.564-5.239-13.128-7.862-19.69c-2.623-6.562-5.248-13.124-7.875-19.685c-0.538-1.344-1.305-1.9-2.376-1.718
			c-0.999,0.169-1.408,0.91-1.753,1.771c-4.388,10.974-8.792,21.941-13.191,32.911c-0.981,2.446-1.981,4.884-2.924,7.345
			c-0.42,1.096,0.122,2.295,1.112,2.712c0.933,0.393,2.058-0.083,2.602-1.12c0.166-0.317,0.289-0.657,0.422-0.991
			c2.331-5.862,4.66-11.725,6.992-17.587C501.331,393.308,503.65,387.487,506.063,381.426z M130.6,379.081c0.553,0,0.987,0,1.42,0
			c5.479,0,10.957,0.001,16.436-0.003c0.398,0,0.807,0.012,1.193-0.068c1.047-0.217,1.659-1.027,1.619-2.066
			c-0.039-1.017-0.748-1.761-1.817-1.886c-0.277-0.032-0.559-0.017-0.839-0.017c-6.478-0.001-12.957-0.002-19.435,0
			c-2.017,0.001-2.656,0.636-2.656,2.643c-0.002,13.037-0.002,26.073,0,39.11c0,2.009,0.639,2.644,2.654,2.645
			c6.358,0.003,12.717,0.001,19.075,0c0.4,0,0.803,0.024,1.199-0.019c1.071-0.117,1.779-0.866,1.819-1.882
			c0.041-1.039-0.57-1.853-1.617-2.066c-0.425-0.086-0.875-0.07-1.313-0.07c-5.479-0.004-10.957-0.003-16.436-0.003
			c-0.421,0-0.843,0-1.302,0C130.6,403.234,130.6,391.248,130.6,379.081z M157.385,397.641c0.214,1.411,0.354,3.461,0.848,5.422
			c4.045,16.049,19.94,19.164,30.542,14.91c1.196-0.48,1.589-1.5,1.109-2.632c-0.496-1.17-1.447-1.515-2.901-0.963
			c-3.769,1.43-7.637,1.736-11.55,0.857c-7.071-1.589-11.556-6.046-13.321-12.976c-1.871-7.344-0.457-14.097,5.298-19.31
			c5.686-5.151,12.398-5.783,19.505-3.313c1.51,0.525,2.495,0.212,2.986-1.015c0.495-1.237,0.002-2.196-1.508-2.739
			c-6.689-2.407-13.33-2.268-19.618,1.088C160.845,381.204,157.812,388.396,157.385,397.641z M465.362,387.241
			c-0.632,1.57-1.191,2.97-1.759,4.367c-3.294,8.095-6.592,16.188-9.885,24.283c-0.953,2.342-0.156,3.547,2.336,3.55
			c1.519,0.002,3.038,0,4.557,0c7.236,0,14.471-0.006,21.707,0.008c0.935,0.002,1.763-0.131,2.231-1.054
			c0.779-1.537-0.236-3.028-2.087-3.03c-7.595-0.009-15.191-0.003-22.786-0.006c-0.412,0-0.824-0.037-1.324-0.06
			c0.172-0.486,0.277-0.824,0.41-1.15c2.334-5.728,4.671-11.454,7.007-17.181c1.447-3.547,2.911-7.087,4.329-10.646
			c0.657-1.649-0.049-3.057-1.632-3.087c-3.876-0.074-7.755-0.054-11.632-0.003c-1.064,0.014-1.634,0.76-1.742,1.801
			c-0.108,1.05,0.502,1.92,1.511,2.134c0.423,0.09,0.873,0.071,1.311,0.072C460.34,387.244,462.765,387.241,465.362,387.241z
			 M470.264,407.24c0.221-0.589,0.363-0.997,0.526-1.397c3.709-9.133,7.423-18.263,11.129-27.397
			c0.897-2.21,0.095-3.404-2.271-3.405c-7.276-0.003-14.552-0.001-21.828-0.001c-0.32,0-0.642-0.02-0.959,0.012
			c-1.064,0.108-1.747,0.851-1.776,1.907c-0.029,1.057,0.612,1.845,1.665,1.996c0.393,0.056,0.797,0.044,1.196,0.044
			c5.917,0.002,11.833,0.002,17.75,0.002c0.468,0,0.937,0,1.594,0c-0.207,0.555-0.334,0.922-0.479,1.28
			c-1.93,4.773-3.862,9.544-5.793,14.316c-1.857,4.587-3.723,9.17-5.566,13.762c-0.669,1.667-0.021,2.893,1.59,2.904
			c5.277,0.036,10.554,0.029,15.831,0c1.207-0.007,2.006-0.978,1.916-2.141c-0.092-1.197-0.902-1.874-2.33-1.879
			C478.465,407.231,474.471,407.24,470.264,407.24z M320.92,397.177c-0.006-6.437-4.111-11.998-10.227-13.852
			c-6.051-1.835-12.488,0.485-15.987,5.761c-1.084,1.634-1.085,2.846,0.02,3.587c1.147,0.769,2.378,0.166,3.342-1.254
			c3.851-5.674,11.356-6.192,16.031-1.232c3.452,3.662,3.669,9.566,0.497,13.539c-3.313,4.148-8.74,5.233-13.189,2.395
			c-1.465-0.934-2.591-2.43-3.783-3.75c-0.628-0.695-1.352-1.211-2.171-0.83c-0.634,0.294-1.255,0.984-1.494,1.639
			c-0.169,0.463,0.2,1.229,0.514,1.747c3.334,5.5,9.789,8.034,15.973,6.311C316.606,409.521,320.926,403.723,320.92,397.177z
			 M422.441,399.245c0.082-0.016,0.164-0.032,0.247-0.048c0.255,0.356,0.513,0.71,0.764,1.068
			c4.135,5.883,8.269,11.767,12.408,17.648c0.251,0.357,0.502,0.739,0.834,1.01c0.761,0.622,1.64,0.725,2.424,0.106
			c0.744-0.588,1.035-1.421,0.655-2.358c-0.147-0.364-0.382-0.699-0.609-1.025c-4.829-6.909-9.662-13.815-14.494-20.722
			c-0.847-1.211-1.698-2.42-2.536-3.637c-0.54-0.784-1.287-1.107-2.181-0.849c-0.933,0.269-1.456,0.942-1.468,1.952
			c-0.002,0.2-0.005,0.4-0.005,0.6c0,7.874-0.002,15.749,0.004,23.623c0,0.437,0.004,0.888,0.106,1.309
			c0.291,1.201,1.493,1.775,2.625,1.277c0.979-0.431,1.238-1.243,1.234-2.249c-0.018-5.076-0.008-10.153-0.008-15.229
			C422.441,400.895,422.441,400.07,422.441,399.245z M250.6,399.251c0.081-0.02,0.162-0.04,0.243-0.06
			c0.255,0.356,0.512,0.709,0.764,1.067c4.135,5.883,8.269,11.767,12.408,17.648c0.251,0.357,0.501,0.739,0.832,1.012
			c0.759,0.624,1.638,0.732,2.424,0.116c0.747-0.585,1.04-1.417,0.665-2.355c-0.146-0.365-0.38-0.7-0.607-1.025
			c-3.752-5.371-7.509-10.739-11.265-16.107c-1.901-2.717-3.793-5.44-5.708-8.147c-0.89-1.258-2.345-1.425-3.214-0.321
			c-0.314,0.399-0.48,1.021-0.482,1.542c-0.029,8.154-0.021,16.308-0.014,24.463c0,0.316,0.033,0.645,0.123,0.947
			c0.322,1.07,1.427,1.602,2.483,1.21c1.063-0.394,1.358-1.223,1.355-2.282c-0.016-5.516-0.008-11.032-0.008-16.548
			C250.6,400.024,250.6,399.638,250.6,399.251z M263.32,395.459c-0.081,0.024-0.162,0.048-0.243,0.072
			c-0.277-0.389-0.555-0.777-0.83-1.168c-4.182-5.951-8.36-11.905-12.546-17.852c-0.894-1.27-1.914-1.558-2.933-0.872
			c-1.077,0.726-1.218,1.856-0.329,3.13c5.649,8.095,11.31,16.181,16.964,24.272c0.586,0.839,1.285,1.47,2.398,1.149
			c1.183-0.341,1.566-1.228,1.565-2.392c-0.011-8.037-0.001-16.074-0.01-24.111c-0.002-1.456-0.782-2.354-1.983-2.365
			c-1.248-0.011-2.049,0.918-2.051,2.419c-0.006,5.518-0.002,11.036-0.002,16.554C263.32,394.683,263.32,395.071,263.32,395.459z
			 M435.161,395.45c-0.076,0.026-0.152,0.052-0.229,0.077c-0.254-0.349-0.513-0.695-0.762-1.049
			c-4.137-5.885-8.272-11.771-12.41-17.655c-0.229-0.326-0.441-0.679-0.727-0.949c-0.725-0.682-1.561-0.819-2.401-0.24
			c-0.845,0.582-1.204,1.386-0.775,2.392c0.155,0.362,0.384,0.698,0.612,1.023c5.541,7.926,11.087,15.849,16.634,23.771
			c0.206,0.294,0.404,0.604,0.659,0.851c1.134,1.096,2.906,0.62,3.323-0.908c0.123-0.452,0.112-0.948,0.113-1.425
			c0.006-7.717,0.004-15.434,0.004-23.151c0-0.24,0.009-0.48-0.003-0.72c-0.064-1.281-0.836-2.121-1.963-2.145
			c-1.171-0.025-2.044,0.864-2.069,2.156c-0.024,1.279-0.006,2.559-0.006,3.838C435.161,386.029,435.161,390.74,435.161,395.45z
			 M165.918,396.97c0.153,1.227,0.205,2.477,0.475,3.678c2.304,10.256,13.632,13.44,21.698,8.63c0.91-0.543,1.156-1.597,0.701-2.511
			c-0.479-0.963-1.499-1.363-2.535-0.963c-0.408,0.158-0.784,0.396-1.185,0.574c-6.92,3.072-13.902-0.519-15.01-7.718
			c-0.843-5.479,2.13-10.349,7.205-11.73c3.039-0.827,5.931-0.329,8.709,1.087c1.207,0.616,2.211,0.33,2.773-0.704
			c0.581-1.069,0.224-2.123-0.999-2.776c-3.394-1.814-6.98-2.511-10.779-1.682C170.242,384.324,166.096,389.678,165.918,396.97z
			 M208.84,391.115c0-4.645,0.005-9.155-0.003-13.665c-0.003-1.511-0.802-2.425-2.057-2.404c-1.189,0.02-1.972,0.923-1.975,2.377
			c-0.014,5.155-0.017,10.309,0.002,15.464c0.006,1.549,0.761,2.302,2.278,2.308c3.836,0.016,7.672,0.016,11.508,0
			c1.474-0.006,2.204-0.749,2.244-2.205c0.015-0.559,0.003-1.119,0.003-1.678c0-4.675,0.009-9.35-0.006-14.025
			c-0.004-1.362-0.801-2.23-1.971-2.24c-1.172-0.01-1.989,0.852-2.06,2.182c-0.015,0.279-0.004,0.559-0.004,0.839
			c0,3.916,0,7.832,0,11.748c0,0.422,0,0.843,0,1.301C214.08,391.115,211.536,391.115,208.84,391.115z M216.8,403.383
			c0,4.661-0.01,9.175,0.006,13.689c0.005,1.442,0.793,2.336,1.997,2.363c1.21,0.027,2.03-0.871,2.033-2.3
			c0.011-5.194,0.013-10.389-0.001-15.583c-0.004-1.529-0.753-2.261-2.301-2.267c-3.796-0.014-7.592-0.014-11.388,0
			c-1.599,0.006-2.335,0.74-2.34,2.369c-0.016,5.115-0.013,10.229-0.002,15.344c0.003,1.527,0.802,2.454,2.036,2.437
			c1.251-0.017,1.996-0.92,1.998-2.463c0.007-4.116,0.002-8.231,0.002-12.347c0-0.418,0-0.837,0-1.241
			C211.578,403.383,214.123,403.383,216.8,403.383z M98.052,387.162c0,0.742,0,1.258,0,1.774c0,9.033,0,18.067,0,27.1
			c0,0.4-0.016,0.801,0.013,1.199c0.1,1.362,0.888,2.196,2.056,2.199c1.184,0.004,1.953-0.824,2.033-2.198
			c0.016-0.279,0.007-0.559,0.007-0.839c0-10.073,0.001-20.145-0.002-30.218c0-0.399,0.004-0.802-0.047-1.196
			c-0.137-1.056-0.782-1.733-1.812-1.75c-3.436-0.056-6.875-0.052-10.311,0.002c-1.013,0.016-1.74,0.937-1.724,1.962
			c0.017,1.066,0.58,1.729,1.633,1.893c0.548,0.085,1.115,0.067,1.674,0.069C93.68,387.166,95.788,387.162,98.052,387.162z
			 M110.173,387.253c0.57,0,1.001,0,1.433,0c2.119-0.001,4.238,0.032,6.356-0.017c1.353-0.031,2.148-0.881,2.108-2.096
			c-0.04-1.245-0.828-1.908-2.24-1.905c-2.958,0.006-5.916,0.002-8.874,0.004c-2.237,0.002-2.835,0.602-2.835,2.846
			c-0.001,10.153-0.001,20.307,0.001,30.46c0,0.359-0.036,0.729,0.034,1.076c0.195,0.96,0.768,1.589,1.777,1.661
			c1.034,0.074,1.804-0.374,2.087-1.406c0.134-0.49,0.146-1.024,0.147-1.538c0.008-9.154,0.006-18.308,0.006-27.462
			C110.173,388.4,110.173,387.923,110.173,387.253z M351.548,391.375c-0.236-0.505-0.418-0.856-0.568-1.22
			c-1.382-3.358-2.757-6.72-4.138-10.079c-0.531-1.292-1.03-2.599-1.62-3.863c-0.46-0.988-1.593-1.415-2.514-1.061
			c-0.954,0.366-1.432,1.385-1.146,2.473c0.071,0.269,0.182,0.528,0.287,0.786c2.482,6.142,4.972,12.281,7.442,18.429
			c0.411,1.024,0.928,1.905,2.17,1.917c1.256,0.011,1.741-0.881,2.158-1.908c2.498-6.136,5.034-12.256,7.534-18.392
			c0.205-0.502,0.47-1.172,0.295-1.593c-0.276-0.665-0.792-1.407-1.407-1.71c-0.798-0.393-1.648,0.017-2.163,0.809
			c-0.214,0.33-0.338,0.72-0.489,1.089C355.474,381.744,353.562,386.436,351.548,391.375z M224.92,397.256
			c0,6.432,0,12.864,0.001,19.296c0,0.359-0.03,0.724,0.021,1.077c0.149,1.032,0.754,1.66,1.792,1.793
			c0.982,0.125,1.901-0.533,2.135-1.534c0.098-0.421,0.089-0.871,0.089-1.309c0.004-12.904,0.004-25.807,0.001-38.711
			c0-0.398,0.012-0.806-0.067-1.192c-0.209-1.016-1.078-1.677-2.07-1.629c-0.991,0.048-1.77,0.794-1.883,1.835
			c-0.038,0.356-0.017,0.718-0.017,1.078C224.92,384.393,224.92,390.824,224.92,397.256z M196.84,397.242c0,6.432,0,12.864,0,19.296
			c0,1.958,0.673,2.911,2.045,2.898c1.34-0.012,1.995-0.982,1.995-2.962c0.001-12.824,0.001-25.647-0.002-38.471
			c0-0.438,0.018-0.887-0.065-1.312c-0.2-1.031-1.063-1.694-2.052-1.642c-1.003,0.053-1.786,0.789-1.903,1.82
			c-0.04,0.355-0.018,0.718-0.018,1.078C196.84,384.378,196.84,390.81,196.84,397.242z M447.169,397.262c0-4.636,0-9.272,0-13.908
			c0-1.998,0.021-3.997-0.01-5.995c-0.02-1.275-0.814-2.06-1.997-2.075c-1.164-0.014-1.955,0.781-2.037,2.05
			c-0.008,0.119-0.004,0.24-0.004,0.36c0,13.069-0.001,26.138,0.004,39.207c0,0.316,0.017,0.645,0.103,0.946
			c0.289,1.005,0.987,1.582,2.025,1.517c1.024-0.064,1.681-0.7,1.875-1.722c0.074-0.387,0.039-0.797,0.039-1.196
			C447.169,410.051,447.169,403.657,447.169,397.262z M271.28,397.371c0,6.435-0.002,12.869,0.001,19.304
			c0.001,1.712,0.766,2.727,2.026,2.718c1.271-0.01,2.011-1.006,2.021-2.72c0-0.08,0-0.16,0-0.24c0-12.789,0-25.579-0.001-38.368
			c0-0.36,0.032-0.726-0.026-1.077c-0.173-1.048-0.837-1.623-1.875-1.69c-1.048-0.067-1.773,0.446-2.053,1.462
			c-0.114,0.413-0.09,0.87-0.091,1.307C271.278,384.502,271.28,390.936,271.28,397.371z M410.441,397.198
			c0,6.437,0,12.874,0.001,19.311c0,0.36-0.024,0.724,0.023,1.078c0.135,1.007,0.993,1.828,1.941,1.791
			c1.036-0.04,1.732-0.582,1.923-1.633c0.085-0.468,0.096-0.953,0.096-1.431c0.005-12.714,0.005-25.428,0.001-38.143
			c0-0.438,0-0.886-0.083-1.312c-0.252-1.294-1.563-1.938-2.762-1.385c-0.936,0.432-1.149,1.219-1.147,2.172
			C410.448,384.164,410.441,390.681,410.441,397.198z M238.6,397.366c0,6.357,0,12.714,0,19.071c0,0.36-0.024,0.723,0.015,1.079
			c0.112,1.023,0.92,1.814,1.876,1.872c0.968,0.059,1.814-0.628,2.005-1.687c0.084-0.468,0.087-0.954,0.087-1.432
			c0.004-12.674,0.004-25.348,0-38.023c0-0.478-0.005-0.965-0.094-1.431c-0.193-1.009-0.883-1.489-1.871-1.525
			c-1.247-0.045-2.015,0.826-2.016,2.285C238.597,384.172,238.6,390.769,238.6,397.366z M138.639,387.162
			c3.019,0,5.889,0.004,8.759-0.003c0.758-0.002,1.524,0.029,2.271-0.07c1.061-0.139,1.702-0.969,1.663-2
			c-0.038-1.02-0.777-1.856-1.821-1.861c-4.313-0.021-8.626-0.017-12.939,0.03c-1.331,0.014-2.063,0.792-2.081,2.134
			c-0.035,2.595-0.037,5.192,0.004,7.787c0.02,1.266,0.769,1.986,2.026,2.055c0.836,0.045,1.677,0.02,2.515,0.02
			c2.117,0,4.234,0.024,6.35-0.017c1.307-0.025,2.214-0.919,2.202-2.048c-0.012-1.154-0.894-1.962-2.231-2.024
			c-0.478-0.022-0.958-0.006-1.438-0.006c-1.743,0-3.486,0-5.282,0C138.639,389.782,138.639,388.563,138.639,387.162z
			 M138.629,403.32c2.244,0,4.359,0.009,6.475-0.003c1.531-0.009,2.46-0.774,2.485-2.008c0.025-1.214-0.934-2.021-2.448-2.026
			c-2.718-0.01-5.436-0.011-8.155,0.001c-1.693,0.007-2.405,0.703-2.421,2.403c-0.023,2.398-0.023,4.797,0,7.195
			c0.016,1.697,0.729,2.391,2.428,2.395c3.957,0.01,7.915,0.003,11.872,0.003c0.08,0,0.16,0.002,0.24-0.001
			c1.373-0.043,2.223-0.797,2.23-1.979c0.008-1.201-0.813-2.031-2.176-2.047c-3.078-0.036-6.156-0.011-9.234-0.017
			c-0.422-0.001-0.843-0.039-1.298-0.062C138.629,405.864,138.629,404.68,138.629,403.32z M104.204,379.242c0.48,0,0.959,0,1.439,0
			c4.037-0.001,8.073,0.01,12.11-0.007c1.531-0.006,2.315-0.705,2.318-1.977c0.004-1.283-0.781-1.974-2.305-1.975
			c-9.072-0.005-18.145-0.003-27.217-0.001c-0.279,0-0.57-0.018-0.835,0.05c-1.008,0.26-1.607,0.911-1.576,1.971
			c0.029,0.99,0.581,1.646,1.566,1.849c0.425,0.088,0.874,0.085,1.312,0.085C95.411,379.244,99.808,379.241,104.204,379.242z
			 M386.076,411.28c-1.959,0-3.918,0.018-5.876-0.007c-1.032-0.014-1.811,0.39-2.219,1.319c-0.546,1.241-1.046,2.505-1.484,3.788
			c-0.344,1.007,0.215,2.086,1.159,2.458c0.944,0.372,2.013-0.059,2.512-1.046c0.27-0.534,0.536-1.078,0.712-1.647
			c0.203-0.657,0.592-0.812,1.242-0.799c2.078,0.041,4.17,0.156,6.232-0.026c1.888-0.167,3.038,0.271,3.538,2.261
			c0.298,1.188,1.573,1.659,2.588,1.274c1.049-0.398,1.53-1.586,1.077-2.805c-0.404-1.084-0.892-2.136-1.312-3.214
			c-0.434-1.112-1.221-1.589-2.411-1.565C389.914,411.308,387.995,411.28,386.076,411.28z M501.247,415.36
			c2.375,0,4.74,0.124,7.085-0.04c1.853-0.13,3.064,0.205,3.55,2.24c0.286,1.195,1.556,1.674,2.576,1.301
			c1.052-0.385,1.554-1.581,1.102-2.791c-0.432-1.158-0.933-2.291-1.412-3.431c-0.381-0.906-1.067-1.359-2.054-1.358
			c-3.998,0.002-7.995,0.007-11.993-0.004c-1.043-0.003-1.772,0.48-2.17,1.4c-0.506,1.171-0.969,2.364-1.391,3.568
			c-0.383,1.094,0.111,2.183,1.094,2.584c0.98,0.4,2.051-0.058,2.566-1.129C500.563,416.946,500.886,416.173,501.247,415.36z
			 M385.957,403.272c-0.157,0.039-0.195,0.057-0.234,0.057c-0.759,0.012-1.518,0.017-2.277,0.032
			c-1.414,0.028-2.243,0.728-2.28,1.919c-0.038,1.231,0.837,2.088,2.241,2.112c1.759,0.031,3.52,0.037,5.278,0
			c1.963-0.041,2.801-1.339,2.067-3.163c-0.849-2.111-1.718-4.214-2.587-6.317c-0.619-1.497-1.657-2.057-2.855-1.558
			c-1.122,0.467-1.467,1.607-0.903,3.045C384.912,400.689,385.436,401.972,385.957,403.272z M505.996,403.361
			c-0.97,0-1.797-0.014-2.624,0.003c-1.381,0.03-2.213,0.789-2.208,1.989c0.005,1.187,0.852,2.012,2.195,2.037
			c1.799,0.034,3.6,0.046,5.398-0.002c1.891-0.05,2.716-1.351,2.009-3.116c-0.861-2.149-1.741-4.291-2.627-6.43
			c-0.589-1.424-1.609-1.965-2.786-1.505c-1.141,0.445-1.521,1.602-0.968,3.019C504.891,400.65,505.421,401.934,505.996,403.361z"/>
		<path d="M283.621,397.175c0.501-9.289,3.941-16.74,12.642-20.713c11.528-5.264,26.513-1.132,31.982,12.724
			c0.132,0.334,0.258,0.672,0.351,1.018c0.358,1.328-0.121,2.327-1.276,2.693c-1.16,0.367-2.141-0.144-2.602-1.443
			c-1.219-3.432-3.188-6.332-5.992-8.666c-8.446-7.032-21.81-5.436-27.706,3.316c-5.775,8.572-3.665,20.989,4.537,26.534
			c8.796,5.945,24.268,3.872,29.034-9.297c0.236-0.651,0.758-1.39,1.345-1.666c0.53-0.249,1.56-0.16,1.956,0.216
			c0.483,0.459,0.839,1.436,0.707,2.077c-0.253,1.228-0.802,2.423-1.382,3.552c-4.23,8.222-13.539,13.215-22.901,12.331
			c-10.915-1.031-18.178-7.613-20.225-18.388C283.815,400.018,283.764,398.53,283.621,397.175z"/>
		<path d="M351.537,413.663c1.931-4.743,3.781-9.285,5.63-13.829c3.069-7.541,6.136-15.083,9.205-22.625
			c0.135-0.333,0.256-0.674,0.423-0.991c0.513-0.973,1.608-1.421,2.522-1.052c0.996,0.402,1.517,1.487,1.096,2.576
			c-1.022,2.642-2.106,5.261-3.176,7.885c-4.55,11.161-9.101,22.322-13.669,33.476c-0.22,0.538-0.515,1.122-0.945,1.482
			c-1.069,0.895-2.531,0.35-3.145-1.141c-1.883-4.577-3.739-9.164-5.607-13.747c-3.676-9.018-7.354-18.035-11.027-27.054
			c-0.164-0.404-0.344-0.817-0.41-1.243c-0.167-1.072,0.38-1.962,1.326-2.27c0.909-0.296,1.927,0.146,2.417,1.07
			c0.149,0.281,0.247,0.588,0.368,0.884c4.801,11.748,9.602,23.497,14.405,35.245C351.101,412.696,351.27,413.055,351.537,413.663z"
			/>
		<path d="M386.058,381.433c-2.331,5.859-4.575,11.495-6.816,17.132c-2.419,6.085-4.836,12.171-7.255,18.256
			c-0.029,0.074-0.071,0.144-0.101,0.218c-0.636,1.565-1.752,2.262-2.878,1.795c-1.161-0.481-1.531-1.76-0.925-3.272
			c3.192-7.969,6.389-15.936,9.585-23.903c2.111-5.262,4.235-10.519,6.329-15.788c0.397-1,0.9-1.806,2.106-1.797
			c1.207,0.01,1.68,0.836,2.076,1.833c5.259,13.206,10.538,26.404,15.811,39.604c0.089,0.222,0.181,0.444,0.254,0.672
			c0.38,1.169-0.095,2.282-1.133,2.669c-0.967,0.36-2.083-0.124-2.569-1.181c-0.416-0.906-0.761-1.845-1.13-2.772
			c-4.263-10.723-8.524-21.446-12.788-32.169C386.48,382.36,386.309,382.002,386.058,381.433z"/>
		<path d="M506.063,381.426c-2.413,6.06-4.732,11.882-7.048,17.704c-2.332,5.862-4.66,11.725-6.992,17.587
			c-0.133,0.334-0.256,0.674-0.422,0.991c-0.544,1.038-1.668,1.514-2.602,1.12c-0.99-0.417-1.531-1.616-1.112-2.712
			c0.943-2.461,1.943-4.899,2.924-7.345c4.399-10.97,8.804-21.937,13.191-32.911c0.344-0.861,0.753-1.601,1.753-1.771
			c1.071-0.182,1.838,0.374,2.376,1.718c2.628,6.561,5.253,13.122,7.875,19.685c2.623,6.563,5.242,13.127,7.862,19.69
			c0.148,0.371,0.304,0.74,0.42,1.122c0.318,1.046-0.137,2.084-1.077,2.5c-0.908,0.402-2.049,0.008-2.575-0.927
			c-0.214-0.38-0.353-0.803-0.515-1.211c-4.487-11.278-8.972-22.557-13.459-33.836C506.501,382.426,506.32,382.029,506.063,381.426z
			"/>
		<path d="M130.6,379.081c0,12.167,0,24.153,0,36.319c0.459,0,0.88,0,1.302,0c5.479,0,10.957-0.001,16.436,0.003
			c0.438,0,0.888-0.017,1.313,0.07c1.047,0.213,1.658,1.027,1.617,2.066c-0.04,1.016-0.749,1.765-1.819,1.882
			c-0.396,0.043-0.799,0.019-1.199,0.019c-6.358,0.001-12.717,0.002-19.075,0c-2.015-0.001-2.654-0.637-2.654-2.645
			c-0.002-13.037-0.002-26.073,0-39.11c0-2.007,0.64-2.642,2.656-2.643c6.478-0.003,12.957-0.001,19.435,0
			c0.28,0,0.562-0.015,0.839,0.017c1.069,0.125,1.777,0.87,1.817,1.886c0.04,1.039-0.572,1.849-1.619,2.066
			c-0.386,0.08-0.795,0.068-1.193,0.068c-5.479,0.004-10.957,0.003-16.436,0.003C131.587,379.081,131.154,379.081,130.6,379.081z"/>
		<path d="M157.385,397.641c0.427-9.244,3.46-16.437,11.391-20.67c6.288-3.356,12.929-3.494,19.618-1.088
			c1.51,0.543,2.003,1.503,1.508,2.739c-0.491,1.227-1.476,1.54-2.986,1.015c-7.107-2.471-13.819-1.838-19.505,3.313
			c-5.755,5.213-7.168,11.966-5.298,19.31c1.765,6.93,6.25,11.387,13.321,12.976c3.912,0.879,7.78,0.573,11.55-0.857
			c1.455-0.552,2.405-0.207,2.901,0.963c0.48,1.132,0.087,2.152-1.109,2.632c-10.602,4.253-26.497,1.139-30.542-14.91
			C157.739,401.102,157.599,399.051,157.385,397.641z"/>
		<path d="M465.362,387.241c-2.597,0-5.022,0.003-7.447-0.003c-0.438-0.001-0.888,0.017-1.311-0.072
			c-1.009-0.214-1.619-1.085-1.511-2.134c0.107-1.041,0.678-1.787,1.742-1.801c3.877-0.051,7.756-0.07,11.632,0.003
			c1.582,0.03,2.289,1.437,1.632,3.087c-1.418,3.558-2.883,7.099-4.329,10.646c-2.336,5.727-4.673,11.453-7.007,17.181
			c-0.133,0.327-0.238,0.665-0.41,1.15c0.5,0.024,0.912,0.06,1.324,0.06c7.595,0.003,15.191-0.002,22.786,0.006
			c1.851,0.002,2.866,1.493,2.087,3.03c-0.468,0.924-1.296,1.056-2.231,1.054c-7.236-0.014-14.471-0.008-21.707-0.008
			c-1.519,0-3.038,0.001-4.557,0c-2.491-0.003-3.288-1.208-2.336-3.55c3.293-8.095,6.591-16.188,9.885-24.283
			C464.171,390.211,464.73,388.811,465.362,387.241z"/>
		<path d="M470.264,407.24c4.207,0,8.201-0.008,12.194,0.004c1.429,0.005,2.238,0.682,2.33,1.879
			c0.09,1.163-0.709,2.134-1.916,2.141c-5.277,0.03-10.554,0.036-15.831,0c-1.611-0.011-2.259-1.237-1.59-2.904
			c1.843-4.592,3.709-9.176,5.566-13.762c1.932-4.772,3.864-9.543,5.793-14.316c0.145-0.359,0.272-0.725,0.479-1.28
			c-0.657,0-1.125,0-1.594,0c-5.917,0-11.833,0.001-17.75-0.002c-0.399,0-0.803,0.012-1.196-0.044
			c-1.053-0.151-1.694-0.939-1.665-1.996c0.029-1.055,0.711-1.798,1.776-1.907c0.317-0.032,0.639-0.012,0.959-0.012
			c7.276,0,14.552-0.002,21.828,0.001c2.366,0.001,3.168,1.195,2.271,3.405c-3.706,9.134-7.42,18.264-11.129,27.397
			C470.627,406.243,470.485,406.651,470.264,407.24z"/>
		<path d="M320.92,397.177c0.006,6.546-4.314,12.344-10.476,14.06c-6.185,1.722-12.639-0.811-15.973-6.311
			c-0.314-0.518-0.684-1.284-0.514-1.747c0.24-0.655,0.86-1.344,1.494-1.639c0.819-0.38,1.543,0.135,2.171,0.83
			c1.192,1.319,2.318,2.815,3.783,3.75c4.449,2.837,9.876,1.753,13.189-2.395c3.172-3.973,2.956-9.876-0.497-13.539
			c-4.675-4.959-12.18-4.441-16.031,1.232c-0.964,1.42-2.195,2.023-3.342,1.254c-1.105-0.741-1.103-1.953-0.02-3.587
			c3.5-5.276,9.936-7.595,15.987-5.761C316.809,385.18,320.914,390.74,320.92,397.177z"/>
		<path d="M422.441,399.245c0,0.825,0,1.65,0,2.475c0,5.076-0.01,10.153,0.008,15.229c0.004,1.006-0.255,1.818-1.234,2.249
			c-1.132,0.498-2.334-0.076-2.625-1.277c-0.102-0.42-0.105-0.872-0.106-1.309c-0.006-7.874-0.004-15.749-0.004-23.623
			c0-0.2,0.002-0.4,0.005-0.6c0.012-1.01,0.536-1.682,1.468-1.952c0.895-0.258,1.642,0.065,2.181,0.849
			c0.838,1.217,1.689,2.426,2.536,3.637c4.832,6.907,9.666,13.813,14.494,20.722c0.227,0.325,0.462,0.66,0.609,1.025
			c0.379,0.937,0.089,1.77-0.655,2.358c-0.784,0.619-1.663,0.516-2.424-0.106c-0.332-0.271-0.583-0.653-0.834-1.01
			c-4.139-5.88-8.273-11.765-12.408-17.648c-0.252-0.358-0.51-0.712-0.764-1.068C422.605,399.213,422.523,399.229,422.441,399.245z"
			/>
		<path d="M250.6,399.251c0,0.386,0,0.773,0,1.159c0,5.516-0.009,11.032,0.008,16.548c0.003,1.059-0.292,1.888-1.355,2.282
			c-1.056,0.391-2.161-0.14-2.483-1.21c-0.091-0.301-0.123-0.63-0.123-0.947c-0.007-8.154-0.015-16.308,0.014-24.463
			c0.002-0.521,0.168-1.143,0.482-1.542c0.869-1.104,2.324-0.937,3.214,0.321c1.915,2.707,3.807,5.43,5.708,8.147
			c3.756,5.368,7.513,10.736,11.265,16.107c0.227,0.325,0.461,0.661,0.607,1.025c0.375,0.938,0.082,1.77-0.665,2.355
			c-0.787,0.616-1.666,0.508-2.424-0.116c-0.331-0.273-0.581-0.655-0.832-1.012c-4.139-5.88-8.272-11.765-12.408-17.648
			c-0.252-0.358-0.509-0.711-0.764-1.067C250.762,399.211,250.681,399.231,250.6,399.251z"/>
		<path d="M263.32,395.459c0-0.388,0-0.776,0-1.164c0-5.518-0.003-11.036,0.002-16.554c0.002-1.501,0.802-2.43,2.051-2.419
			c1.201,0.011,1.981,0.908,1.983,2.365c0.009,8.037-0.001,16.074,0.01,24.111c0.002,1.164-0.382,2.051-1.565,2.392
			c-1.112,0.321-1.812-0.31-2.398-1.149c-5.655-8.091-11.315-16.177-16.964-24.272c-0.889-1.274-0.748-2.404,0.329-3.13
			c1.019-0.686,2.038-0.399,2.933,0.872c4.187,5.947,8.365,11.901,12.546,17.852c0.275,0.391,0.553,0.778,0.83,1.168
			C263.158,395.507,263.239,395.483,263.32,395.459z"/>
		<path d="M435.161,395.45c0-4.711,0-9.421,0-14.132c0-1.28-0.018-2.559,0.006-3.838c0.024-1.292,0.898-2.181,2.069-2.156
			c1.127,0.024,1.899,0.864,1.963,2.145c0.012,0.239,0.003,0.48,0.003,0.72c0,7.717,0.002,15.434-0.004,23.151
			c0,0.476,0.011,0.973-0.113,1.425c-0.417,1.528-2.189,2.004-3.323,0.908c-0.255-0.247-0.453-0.557-0.659-0.851
			c-5.547-7.922-11.092-15.845-16.634-23.771c-0.227-0.325-0.457-0.661-0.612-1.023c-0.429-1.006-0.07-1.81,0.775-2.392
			c0.84-0.579,1.677-0.442,2.401,0.24c0.286,0.27,0.498,0.622,0.727,0.949c4.138,5.884,8.273,11.77,12.41,17.655
			c0.249,0.353,0.508,0.699,0.762,1.049C435.008,395.502,435.085,395.476,435.161,395.45z"/>
		<path d="M165.918,396.97c0.179-7.292,4.324-12.646,11.053-14.114c3.798-0.829,7.385-0.131,10.779,1.682
			c1.223,0.653,1.58,1.707,0.999,2.776c-0.562,1.034-1.566,1.32-2.773,0.704c-2.778-1.417-5.67-1.914-8.709-1.087
			c-5.074,1.381-8.048,6.251-7.205,11.73c1.108,7.199,8.09,10.79,15.01,7.718c0.401-0.178,0.777-0.417,1.185-0.574
			c1.036-0.4,2.056,0,2.535,0.963c0.455,0.914,0.209,1.969-0.701,2.511c-8.065,4.81-19.394,1.626-21.698-8.63
			C166.123,399.447,166.071,398.197,165.918,396.97z"/>
		<path d="M208.84,391.115c2.695,0,5.24,0,7.959,0c0-0.458,0-0.879,0-1.301c0-3.916,0-7.832,0-11.748c0-0.28-0.011-0.56,0.004-0.839
			c0.071-1.33,0.888-2.192,2.06-2.182c1.17,0.01,1.967,0.878,1.971,2.24c0.015,4.675,0.006,9.35,0.006,14.025
			c0,0.559,0.012,1.119-0.003,1.678c-0.04,1.456-0.77,2.199-2.244,2.205c-3.836,0.017-7.672,0.017-11.508,0
			c-1.517-0.006-2.272-0.759-2.278-2.308c-0.019-5.154-0.016-10.309-0.002-15.464c0.004-1.454,0.786-2.357,1.975-2.377
			c1.255-0.021,2.054,0.894,2.057,2.404C208.845,381.96,208.84,386.47,208.84,391.115z"/>
		<path d="M216.8,403.383c-2.677,0-5.222,0-7.96,0c0,0.404,0,0.823,0,1.241c0,4.116,0.004,8.231-0.002,12.347
			c-0.002,1.544-0.747,2.446-1.998,2.463c-1.233,0.017-2.032-0.91-2.036-2.437c-0.011-5.115-0.014-10.229,0.002-15.344
			c0.005-1.629,0.741-2.363,2.34-2.369c3.796-0.013,7.592-0.014,11.388,0c1.548,0.006,2.297,0.738,2.301,2.267
			c0.014,5.194,0.012,10.389,0.001,15.583c-0.003,1.429-0.823,2.326-2.033,2.3c-1.204-0.026-1.992-0.92-1.997-2.363
			C216.79,412.559,216.8,408.044,216.8,403.383z"/>
		<path d="M98.052,387.162c-2.265,0-4.372,0.004-6.48-0.003c-0.558-0.002-1.125,0.016-1.674-0.069
			c-1.054-0.164-1.616-0.827-1.633-1.893c-0.017-1.025,0.711-1.946,1.724-1.962c3.436-0.054,6.875-0.058,10.311-0.002
			c1.03,0.017,1.675,0.694,1.812,1.75c0.051,0.394,0.047,0.797,0.047,1.196c0.002,10.073,0.002,20.145,0.002,30.218
			c0,0.28,0.009,0.56-0.007,0.839c-0.08,1.374-0.848,2.202-2.033,2.198c-1.169-0.004-1.957-0.838-2.056-2.199
			c-0.029-0.398-0.013-0.799-0.013-1.199c-0.001-9.033,0-18.067,0-27.1C98.052,388.42,98.052,387.904,98.052,387.162z"/>
		<path d="M110.173,387.253c0,0.67,0,1.147,0,1.624c0,9.154,0.002,18.308-0.006,27.462c0,0.514-0.013,1.048-0.147,1.538
			c-0.283,1.032-1.053,1.481-2.087,1.406c-1.009-0.073-1.582-0.701-1.777-1.661c-0.07-0.347-0.034-0.717-0.034-1.076
			c-0.001-10.153-0.002-20.307-0.001-30.46c0-2.244,0.598-2.844,2.835-2.846c2.958-0.003,5.916,0.001,8.874-0.004
			c1.412-0.003,2.199,0.66,2.24,1.905c0.039,1.215-0.755,2.064-2.108,2.096c-2.118,0.049-4.237,0.015-6.356,0.017
			C111.174,387.253,110.743,387.253,110.173,387.253z"/>
		<path d="M351.548,391.375c2.014-4.939,3.926-9.632,5.841-14.323c0.151-0.369,0.275-0.76,0.489-1.089
			c0.515-0.792,1.365-1.202,2.163-0.809c0.615,0.303,1.13,1.045,1.407,1.71c0.175,0.421-0.09,1.091-0.295,1.593
			c-2.5,6.135-5.036,12.256-7.534,18.392c-0.418,1.026-0.902,1.919-2.158,1.908c-1.242-0.011-1.758-0.893-2.17-1.917
			c-2.47-6.147-4.96-12.286-7.442-18.429c-0.105-0.259-0.216-0.518-0.287-0.786c-0.286-1.087,0.192-2.106,1.146-2.473
			c0.922-0.354,2.054,0.073,2.514,1.061c0.589,1.265,1.089,2.572,1.62,3.863c1.381,3.359,2.756,6.72,4.138,10.079
			C351.131,390.519,351.312,390.871,351.548,391.375z"/>
		<path d="M224.92,397.256c0-6.432,0-12.864,0.001-19.296c0-0.359-0.021-0.722,0.017-1.078c0.112-1.041,0.892-1.788,1.883-1.835
			c0.993-0.048,1.862,0.613,2.07,1.629c0.079,0.386,0.067,0.794,0.067,1.192c0.003,12.904,0.003,25.807-0.001,38.711
			c0,0.437,0.009,0.888-0.089,1.309c-0.233,1-1.152,1.659-2.135,1.534c-1.039-0.132-1.643-0.76-1.792-1.793
			c-0.051-0.353-0.021-0.718-0.021-1.077C224.92,410.12,224.92,403.688,224.92,397.256z"/>
		<path d="M196.84,397.242c0-6.432,0-12.864,0.001-19.296c0-0.359-0.022-0.722,0.018-1.078c0.117-1.031,0.9-1.766,1.903-1.82
			c0.989-0.053,1.852,0.611,2.052,1.642c0.083,0.426,0.064,0.874,0.065,1.312c0.003,12.824,0.003,25.647,0.002,38.471
			c0,1.979-0.656,2.949-1.995,2.962c-1.372,0.012-2.045-0.94-2.045-2.898C196.84,410.106,196.84,403.674,196.84,397.242z"/>
		<path d="M447.169,397.262c0,6.395,0.001,12.789-0.001,19.184c0,0.399,0.034,0.809-0.039,1.196
			c-0.194,1.022-0.851,1.658-1.875,1.722c-1.038,0.065-1.737-0.512-2.025-1.517c-0.086-0.301-0.103-0.63-0.103-0.946
			c-0.005-13.069-0.004-26.138-0.004-39.207c0-0.12-0.004-0.24,0.004-0.36c0.082-1.269,0.873-2.064,2.037-2.05
			c1.184,0.014,1.978,0.8,1.997,2.075c0.031,1.998,0.01,3.997,0.01,5.995C447.169,387.99,447.169,392.626,447.169,397.262z"/>
		<path d="M271.28,397.371c0-6.435-0.002-12.869,0.003-19.304c0-0.437-0.023-0.894,0.091-1.307c0.28-1.016,1.005-1.529,2.053-1.462
			c1.038,0.067,1.701,0.642,1.875,1.69c0.058,0.351,0.026,0.718,0.026,1.077c0.001,12.789,0.001,25.579,0.001,38.368
			c0,0.08,0,0.16,0,0.24c-0.009,1.713-0.75,2.71-2.021,2.72c-1.26,0.01-2.025-1.006-2.026-2.718
			C271.278,410.24,271.28,403.805,271.28,397.371z"/>
		<path d="M410.441,397.198c0-6.517,0.007-13.034-0.008-19.551c-0.002-0.954,0.211-1.741,1.147-2.172
			c1.199-0.553,2.51,0.091,2.762,1.385c0.083,0.427,0.083,0.874,0.083,1.312c0.004,12.714,0.004,25.428-0.001,38.143
			c0,0.478-0.011,0.963-0.096,1.431c-0.191,1.051-0.887,1.593-1.923,1.633c-0.947,0.036-1.806-0.784-1.941-1.791
			c-0.047-0.354-0.023-0.718-0.023-1.078C410.44,410.073,410.441,403.635,410.441,397.198z"/>
		<path d="M238.6,397.366c0-6.597-0.004-13.194,0.003-19.791c0.002-1.459,0.769-2.33,2.016-2.285
			c0.987,0.035,1.678,0.515,1.871,1.525c0.089,0.466,0.094,0.953,0.094,1.431c0.005,12.674,0.005,25.348,0,38.023
			c0,0.478-0.003,0.964-0.087,1.432c-0.191,1.059-1.037,1.746-2.005,1.687c-0.957-0.058-1.764-0.849-1.876-1.872
			c-0.039-0.356-0.015-0.719-0.015-1.079C238.6,410.08,238.6,403.723,238.6,397.366z"/>
		<path d="M138.639,387.162c0,1.402,0,2.62,0,3.998c1.796,0,3.539,0,5.282,0c0.479,0,0.959-0.017,1.438,0.006
			c1.337,0.062,2.218,0.87,2.231,2.024c0.012,1.129-0.896,2.024-2.202,2.048c-2.116,0.04-4.233,0.016-6.35,0.017
			c-0.839,0-1.679,0.025-2.515-0.02c-1.257-0.068-2.006-0.789-2.026-2.055c-0.041-2.595-0.039-5.192-0.004-7.787
			c0.018-1.342,0.75-2.119,2.081-2.134c4.313-0.047,8.626-0.051,12.939-0.03c1.044,0.005,1.783,0.841,1.821,1.861
			c0.038,1.031-0.602,1.861-1.663,2c-0.747,0.098-1.513,0.068-2.271,0.07C144.528,387.165,141.658,387.162,138.639,387.162z"/>
		<path d="M138.629,403.32c0,1.359,0,2.543,0,3.854c0.455,0.023,0.876,0.061,1.298,0.062c3.078,0.006,6.156-0.019,9.234,0.017
			c1.363,0.016,2.183,0.846,2.176,2.047c-0.008,1.182-0.857,1.936-2.23,1.979c-0.08,0.003-0.16,0.001-0.24,0.001
			c-3.957,0-7.915,0.007-11.872-0.003c-1.699-0.004-2.412-0.698-2.428-2.395c-0.023-2.398-0.023-4.797,0-7.195
			c0.016-1.699,0.728-2.395,2.421-2.403c2.718-0.012,5.436-0.01,8.155-0.001c1.514,0.005,2.473,0.812,2.448,2.026
			c-0.025,1.234-0.955,1.999-2.485,2.008C142.988,403.33,140.873,403.32,138.629,403.32z"/>
		<path d="M104.204,379.242c-4.396,0-8.793,0.002-13.189-0.003c-0.438-0.001-0.886,0.002-1.312-0.085
			c-0.985-0.204-1.537-0.859-1.566-1.849c-0.031-1.06,0.568-1.711,1.576-1.971c0.265-0.068,0.556-0.05,0.835-0.05
			c9.072-0.002,18.145-0.005,27.217,0.001c1.523,0.001,2.308,0.691,2.305,1.975c-0.004,1.272-0.787,1.971-2.318,1.977
			c-4.037,0.017-8.073,0.007-12.11,0.007C105.163,379.242,104.683,379.242,104.204,379.242z"/>
		<path d="M386.076,411.28c1.919,0,3.838,0.028,5.756-0.01c1.19-0.024,1.977,0.453,2.411,1.565c0.42,1.078,0.909,2.13,1.312,3.214
			c0.454,1.219-0.028,2.407-1.077,2.805c-1.015,0.386-2.29-0.086-2.588-1.274c-0.5-1.99-1.65-2.429-3.538-2.261
			c-2.063,0.183-4.154,0.067-6.232,0.026c-0.651-0.013-1.039,0.142-1.242,0.799c-0.176,0.568-0.442,1.113-0.712,1.647
			c-0.499,0.987-1.568,1.418-2.512,1.046c-0.944-0.372-1.503-1.451-1.159-2.458c0.439-1.282,0.939-2.547,1.484-3.788
			c0.408-0.928,1.187-1.332,2.219-1.319C382.158,411.299,384.117,411.28,386.076,411.28z"/>
		<path d="M501.247,415.36c-0.362,0.813-0.684,1.586-1.046,2.339c-0.515,1.071-1.585,1.529-2.566,1.129
			c-0.983-0.401-1.478-1.489-1.094-2.584c0.422-1.204,0.884-2.397,1.391-3.568c0.398-0.92,1.127-1.403,2.17-1.4
			c3.997,0.011,7.995,0.006,11.993,0.004c0.988,0,1.674,0.453,2.054,1.358c0.479,1.14,0.98,2.273,1.412,3.431
			c0.452,1.211-0.05,2.407-1.102,2.791c-1.02,0.373-2.29-0.106-2.576-1.301c-0.486-2.035-1.698-2.37-3.55-2.24
			C505.988,415.484,503.623,415.36,501.247,415.36z"/>
		<path d="M385.957,403.272c-0.521-1.3-1.045-2.583-1.55-3.873c-0.564-1.438-0.219-2.578,0.903-3.045
			c1.198-0.499,2.236,0.061,2.855,1.558c0.869,2.103,1.738,4.206,2.587,6.317c0.734,1.824-0.104,3.122-2.067,3.163
			c-1.759,0.037-3.519,0.031-5.278,0c-1.404-0.024-2.279-0.882-2.241-2.112c0.037-1.191,0.866-1.891,2.28-1.919
			c0.759-0.015,1.518-0.021,2.277-0.032C385.761,403.328,385.8,403.311,385.957,403.272z"/>
		<path d="M505.996,403.361c-0.575-1.427-1.105-2.71-1.61-4.004c-0.554-1.417-0.173-2.574,0.968-3.019
			c1.177-0.459,2.197,0.081,2.786,1.505c0.885,2.139,1.766,4.281,2.627,6.43c0.707,1.765-0.118,3.066-2.009,3.116
			c-1.798,0.047-3.599,0.036-5.398,0.002c-1.343-0.026-2.19-0.85-2.195-2.037c-0.005-1.2,0.827-1.96,2.208-1.989
			C504.199,403.346,505.026,403.361,505.996,403.361z"/>
	</g>
</g>
</svg>
